<svg width="349" height="78" viewBox="0 0 349 78" fill="none" xmlns="http://www.w3.org/2000/svg">
<path fill-rule="evenodd" clip-rule="evenodd" d="M28.2657 25.4942C30.0105 23.7493 32.8394 23.7493 34.5842 25.4942L44.8095 35.7194C52.6612 43.5711 52.6612 56.3012 44.8095 64.153L34.5842 74.3782C32.8394 76.123 30.0105 76.123 28.2656 74.3782V74.3782C26.5208 72.6334 26.5208 69.8045 28.2656 68.0596L38.4909 57.8344C42.853 53.4723 42.853 46.4 38.4909 42.038L28.2657 31.8127C26.5208 30.0679 26.5208 27.239 28.2657 25.4942V25.4942Z" fill="#AC9C80"/>
<path fill-rule="evenodd" clip-rule="evenodd" d="M22.7343 25.4942C20.9895 23.7493 18.1606 23.7493 16.4158 25.4942L6.19054 35.7194C-1.66117 43.5711 -1.66117 56.3012 6.19054 64.153L16.4158 74.3782C18.1606 76.123 20.9895 76.123 22.7344 74.3782V74.3782C24.4792 72.6334 24.4792 69.8045 22.7344 68.0596L12.5091 57.8344C8.14704 53.4723 8.14704 46.4 12.5091 42.038L22.7343 31.8127C24.4792 30.0679 24.4792 27.239 22.7343 25.4942V25.4942Z" fill="white"/>
<path fill-rule="evenodd" clip-rule="evenodd" d="M28.4526 3.6968C30.1974 5.44163 30.1974 8.27054 28.4526 10.0154L18.2274 20.2406C13.8653 24.6027 13.8653 31.675 18.2274 36.037L28.4526 46.2623C30.1974 48.0071 30.1974 50.836 28.4526 52.5808V52.5808C26.7078 54.3257 23.8789 54.3257 22.134 52.5808L11.9088 42.3556C4.05709 34.5039 4.0571 21.7738 11.9088 13.922L22.134 3.6968C23.8789 1.95198 26.7078 1.95198 28.4526 3.6968V3.6968Z" fill="#AC9C80"/>
<path fill-rule="evenodd" clip-rule="evenodd" d="M22.5476 3.6968C20.8028 5.44163 20.8028 8.27054 22.5476 10.0154L32.7729 20.2406C37.1349 24.6027 37.1349 31.675 32.7729 36.037L22.5476 46.2623C20.8028 48.0071 20.8028 50.836 22.5476 52.5808V52.5808C24.2925 54.3257 27.1214 54.3257 28.8662 52.5808L39.0914 42.3556C46.9432 34.5039 46.9431 21.7738 39.0914 13.922L28.8662 3.6968C27.1214 1.95198 24.2925 1.95198 22.5476 3.6968V3.6968Z" fill="white"/>
<path d="M76.8399 10.2028C76.8399 7.52698 78.0172 5.24364 80.3719 3.35276C82.7623 1.46187 85.3846 0.51643 88.2387 0.51643C88.9879 0.51643 89.755 0.569946 90.5399 0.676977C91.3605 0.784008 92.0383 0.89104 92.5735 0.998072C93.1443 1.1051 93.9114 1.28349 94.8747 1.53323C95.8736 1.74729 96.6585 1.90784 97.2293 2.01487C97.6218 5.47554 97.818 8.43674 97.818 10.8985C97.6753 11.2552 97.4077 11.4336 97.0153 11.4336C95.9806 11.4336 95.4277 11.3087 95.3563 11.059C95.1066 9.27516 94.3395 7.58049 93.0551 5.97502C91.7708 4.33388 90.1831 3.51331 88.2922 3.51331C87.0792 3.51331 86.0446 3.88791 85.1883 4.63713C84.3678 5.38635 83.9575 6.58153 83.9575 8.22268C83.9575 8.93622 84.1359 9.63192 84.4926 10.3098C84.8494 10.9877 85.4381 11.6834 86.2586 12.3969C87.1149 13.1104 87.8106 13.6456 88.3458 14.0024C88.8809 14.3591 89.755 14.93 90.968 15.7149C91.2891 15.9289 91.5389 16.0895 91.7172 16.1965C92.0027 16.3749 92.5913 16.7317 93.4833 17.2668C94.3752 17.802 94.9995 18.2123 95.3563 18.4977C95.7487 18.7474 96.2661 19.1755 96.9083 19.7821C97.5861 20.3886 98.0678 20.9951 98.3532 21.6016C98.6743 22.1724 98.9597 22.9395 99.2094 23.9028C99.4592 24.8304 99.584 25.865 99.584 27.0067C99.584 29.8608 98.4067 32.2334 96.052 34.1242C93.6973 35.9794 90.9859 36.9071 87.9176 36.9071C85.0991 36.9071 81.7098 36.4433 77.7497 35.5156C77.4642 34.374 77.1788 32.822 76.8934 30.8598C76.6437 28.8619 76.5188 27.4526 76.5188 26.6321C76.6258 26.2753 76.9469 26.0969 77.4821 26.0969C78.5881 26.0969 79.1589 26.2039 79.1946 26.418C79.48 28.0591 80.3719 29.7181 81.8704 31.3949C83.3688 33.0361 85.0278 33.8567 86.8473 33.8567C90.3793 33.8567 92.1454 31.9123 92.1454 28.0235C92.1454 27.4169 91.9848 26.8283 91.6637 26.2574C91.3426 25.6509 90.861 25.0623 90.2188 24.4914C89.5766 23.9206 89.0058 23.4568 88.5063 23.1C88.0068 22.7433 87.2933 22.2795 86.3657 21.7086C85.4737 21.1378 84.9029 20.7632 84.6532 20.5848C84.4748 20.4778 84.2072 20.2994 83.8504 20.0496C82.6731 19.2647 81.7812 18.6404 81.1747 18.1766C80.5681 17.7128 79.8546 17.0706 79.034 16.25C78.2491 15.4294 77.6783 14.5375 77.3215 13.5742C77.0004 12.5753 76.8399 11.4515 76.8399 10.2028Z" fill="white"/>
<path d="M140.804 1.05159C143.23 1.15862 145.192 1.21213 146.691 1.21213C148.189 1.21213 150.151 1.15862 152.577 1.05159C155.003 0.944555 156.966 0.891039 158.464 0.891039C159.356 0.891039 160.587 0.694816 162.157 0.302368L163.173 9.07893C162.924 9.32867 162.406 9.45354 161.621 9.45354C161.3 9.45354 161.122 9.36435 161.086 9.18596C160.194 5.65393 158.286 3.88791 155.36 3.88791C152.47 3.88791 150.954 4.20901 150.811 4.8512C150.526 5.85015 150.383 7.43778 150.383 9.61409V28.9332C150.383 30.7171 150.526 32.162 150.811 33.268C150.883 33.5177 151.364 33.8031 152.256 34.1242C153.184 34.4453 153.808 34.6059 154.129 34.6059C154.272 34.6059 154.343 34.9448 154.343 35.6227C154.343 36.0508 154.308 36.3719 154.236 36.586C153.987 36.586 152.916 36.5146 151.025 36.3719C149.135 36.2292 147.725 36.1578 146.798 36.1578C145.834 36.1578 144.425 36.2292 142.57 36.3719C140.715 36.4789 139.537 36.5503 139.038 36.586C138.895 36.4433 138.824 36.1578 138.824 35.7297C138.824 34.9805 138.877 34.6059 138.984 34.6059C139.377 34.6059 140.037 34.4632 140.964 34.1778C141.892 33.8567 142.409 33.5534 142.516 33.268C142.766 32.3047 142.891 30.9311 142.891 29.1473V9.77463C142.891 6.99182 142.748 5.35068 142.463 4.8512C142.356 4.63713 142.249 4.49443 142.142 4.42307C142.07 4.31604 141.696 4.20901 141.018 4.10198C140.34 3.95927 139.359 3.88791 138.075 3.88791C136.612 3.88791 135.417 4.2982 134.489 5.11877C133.561 5.90367 132.848 7.24156 132.348 9.13245C132.313 9.31083 132.134 9.40002 131.813 9.40002C131.028 9.40002 130.511 9.27515 130.261 9.02541L131.278 0.302368C132.848 0.694816 134.079 0.891039 134.971 0.891039C136.469 0.891039 138.414 0.944555 140.804 1.05159Z" fill="white"/>
<path d="M201.985 1.26565C202.806 1.26565 205.357 1.15862 209.638 0.944555C209.709 1.08726 209.727 1.46187 209.691 2.06838C209.691 2.63922 209.638 2.92463 209.531 2.92463C208.996 2.92463 208.389 3.03167 207.711 3.24573C207.069 3.42411 206.73 3.69169 206.694 4.04846C206.694 4.33388 206.837 4.72633 207.123 5.22581L212.474 14.6981C212.653 14.8765 212.831 14.8408 213.009 14.591C214.044 13.0926 215.275 11.1125 216.702 8.65081C218.129 6.18909 218.843 4.67281 218.843 4.10198C218.843 3.31708 217.701 2.92463 215.418 2.92463C215.275 2.92463 215.186 2.63922 215.15 2.06838C215.15 1.46187 215.221 1.08726 215.364 0.944555C218.575 1.15862 220.733 1.26565 221.839 1.26565C222.767 1.26565 224.783 1.15862 227.887 0.944555C227.994 1.26565 228.047 1.58674 228.047 1.90784C228.047 2.55002 227.976 2.87112 227.833 2.87112C227.191 2.87112 226.46 3.03166 225.639 3.35276C224.818 3.67385 224.158 4.15549 223.659 4.79768C222.731 6.04638 220.93 8.79351 218.254 13.0391C215.614 17.2847 214.294 19.6393 214.294 20.1031V28.6121C214.294 30.61 214.436 32.162 214.722 33.268C214.793 33.5177 215.275 33.8031 216.167 34.1242C217.094 34.4453 217.719 34.6059 218.04 34.6059C218.183 34.6059 218.254 34.9448 218.254 35.6227C218.254 36.0508 218.218 36.3719 218.147 36.586C217.897 36.586 216.827 36.5146 214.936 36.3719C213.045 36.2292 211.636 36.1578 210.708 36.1578C209.745 36.1578 208.336 36.2292 206.48 36.3719C204.625 36.4789 203.448 36.5503 202.948 36.586C202.806 36.4433 202.734 36.1578 202.734 35.7297C202.734 34.9805 202.788 34.6059 202.895 34.6059C203.287 34.6059 203.947 34.4632 204.875 34.1778C205.803 33.8567 206.32 33.5534 206.427 33.268C206.677 32.3047 206.802 30.8598 206.802 28.9332V19.8356C206.802 19.5858 206.231 18.4442 205.089 16.4106C203.983 14.377 202.877 12.3969 201.771 10.4703L200.112 7.63401C198.935 5.45771 197.971 4.15549 197.222 3.72737C196.33 3.19221 195.385 2.92463 194.386 2.92463C194.243 2.92463 194.172 2.63922 194.172 2.06838C194.172 1.46187 194.243 1.08726 194.386 0.944555C194.992 0.980232 195.795 1.03375 196.794 1.1051C197.793 1.14078 198.703 1.17646 199.523 1.21213C200.38 1.24781 201.2 1.26565 201.985 1.26565Z" fill="white"/>
<path d="M265.628 1.26565C266.342 1.26565 268.839 1.15862 273.12 0.944555C273.227 1.26565 273.281 1.58674 273.281 1.90784C273.281 2.5857 273.209 2.92463 273.067 2.92463C272.746 2.92463 272.103 3.08518 271.14 3.40627C270.177 3.69169 269.66 3.95927 269.588 4.20901C269.338 5.17229 269.214 6.59937 269.214 8.49026V28.7727C269.214 30.5209 269.356 31.8052 269.642 32.6258C269.82 33.1966 271.033 33.4821 273.281 33.4821H274.672C276.884 33.4821 278.882 33.0183 280.666 32.0906C281.272 31.7696 281.95 31.163 282.7 30.2711C283.484 29.3792 284.091 28.3802 284.519 27.2742C284.59 27.0602 284.84 26.9531 285.268 26.9531C286.125 26.9531 286.66 27.0602 286.874 27.2742C285.126 32.1977 284.162 35.2659 283.984 36.4789C281.95 36.4789 278.775 36.4433 274.458 36.3719C270.141 36.3005 267.216 36.2649 265.682 36.2649L257.868 36.586C257.726 36.4433 257.654 36.14 257.654 35.6762C257.654 34.9627 257.726 34.6059 257.868 34.6059C258.296 34.6059 258.956 34.481 259.848 34.2313C260.776 33.9815 261.293 33.714 261.4 33.4285C261.614 32.608 261.721 31.0382 261.721 28.7192V8.2762C261.721 6.09989 261.579 4.762 261.293 4.26252C261.115 3.97711 260.615 3.69169 259.795 3.40627C258.974 3.08518 258.368 2.92463 257.975 2.92463C257.833 2.92463 257.761 2.62138 257.761 2.01487C257.761 1.37268 257.797 1.01591 257.868 0.944555C262.792 1.15862 265.378 1.26565 265.628 1.26565Z" fill="white"/>
<path d="M325.632 1.1051C327.202 1.1051 329.967 1.06943 333.927 0.998072C337.887 0.89104 340.884 0.837524 342.917 0.837524C342.953 1.1943 343.47 3.8344 344.469 8.75784C344.291 8.93622 343.881 9.02541 343.239 9.02541C342.846 9.02541 342.596 8.90055 342.489 8.65081C341.811 7.29508 340.741 6.13557 339.278 5.17229C337.816 4.20901 336.389 3.72737 334.997 3.72737H332.964C330.716 3.72737 329.556 3.95927 329.485 4.42307C329.307 5.27932 329.217 6.67073 329.217 8.59729V16.8387C329.217 17.0528 329.984 17.1598 331.519 17.1598H334.355C336.567 17.1598 337.78 17.0884 337.994 16.9457C338.172 16.803 338.315 16.2857 338.422 15.3938C338.493 14.8586 338.601 14.3413 338.743 13.8418C338.779 13.5921 339.046 13.4672 339.546 13.4672C340.152 13.4672 340.545 13.5564 340.723 13.7348V23.8492C340.581 23.992 340.206 24.0633 339.599 24.0633C339.136 24.0633 338.85 23.9206 338.743 23.6352C338.601 23.1357 338.476 22.7076 338.369 22.3508C338.262 21.994 338.172 21.7265 338.101 21.5481C338.03 21.3697 337.94 21.2091 337.833 21.0664C337.762 20.9237 337.709 20.8345 337.673 20.7989C337.637 20.7632 337.566 20.7275 337.459 20.6918C337.352 20.6205 337.28 20.5669 337.245 20.5313C336.781 20.2459 335.39 20.1031 333.071 20.1031C330.502 20.1031 329.217 20.2637 329.217 20.5848V28.8262C329.217 30.5387 329.36 31.8052 329.646 32.6258C329.824 33.1966 331.037 33.4821 333.285 33.4821H334.676C336.888 33.4821 338.886 33.0183 340.67 32.0906C341.276 31.7696 341.954 31.163 342.703 30.2711C343.488 29.3792 344.095 28.3802 344.523 27.2742C344.559 27.0602 344.808 26.9531 345.272 26.9531C346.128 26.9531 346.664 27.0602 346.878 27.2742C345.129 32.1977 344.166 35.2659 343.988 36.4789C342.168 36.4789 339.278 36.4433 335.318 36.3719C331.358 36.3005 328.147 36.2649 325.685 36.2649L317.872 36.586C317.729 36.4433 317.658 36.14 317.658 35.6762C317.658 34.9627 317.729 34.6059 317.872 34.6059C318.3 34.6059 318.96 34.481 319.852 34.2313C320.78 33.9815 321.297 33.714 321.404 33.4285C321.618 32.608 321.725 31.0382 321.725 28.7192V8.49026C321.725 6.52802 321.618 5.13661 321.404 4.31604C321.297 4.03062 320.762 3.70953 319.799 3.35276C318.871 2.99599 318.211 2.8176 317.819 2.8176C317.676 2.8176 317.605 2.49651 317.605 1.85432C317.605 1.28349 317.658 0.944556 317.765 0.837524C320.619 1.01591 323.242 1.1051 325.632 1.1051Z" fill="white"/>
<path d="M77.1738 67.7385C77.1738 66.7083 77.5685 65.8654 78.3579 65.2098C79.1472 64.5409 80.0637 64.2064 81.1072 64.2064C81.4016 64.2064 81.6758 64.2265 81.93 64.2666C82.1976 64.2934 82.4117 64.3268 82.5722 64.367C82.7461 64.4071 82.987 64.474 83.2947 64.5677C83.6158 64.6479 83.8967 64.7148 84.1375 64.7683C84.2981 65.4774 84.3784 66.434 84.3784 67.6381C84.3784 67.7318 84.3115 67.7786 84.1777 67.7786C83.8566 67.7786 83.6827 67.7117 83.6559 67.5779C83.589 66.9892 83.3014 66.4206 82.793 65.8721C82.2979 65.3102 81.6892 65.0292 80.9667 65.0292C80.164 65.0292 79.5954 65.2299 79.2609 65.6313C78.9398 66.0326 78.7793 66.5277 78.7793 67.1163C78.7793 67.3705 78.8261 67.618 78.9198 67.8589C79.0134 68.0863 79.1071 68.2803 79.2007 68.4408C79.2944 68.588 79.4616 68.7619 79.7024 68.9626C79.9566 69.1633 80.1373 69.3038 80.2443 69.3841C80.3647 69.4643 80.5921 69.6115 80.9266 69.8256C81.2745 70.0396 81.4952 70.1734 81.5889 70.2269C81.6558 70.2671 81.8899 70.4142 82.2913 70.6684C82.6926 70.9093 82.9669 71.0832 83.1141 71.1902C83.2612 71.2839 83.4887 71.4645 83.7964 71.7321C84.1175 71.9863 84.3449 72.2137 84.4787 72.4144C84.6259 72.6151 84.7597 72.8693 84.8801 73.177C85.0139 73.4713 85.0808 73.779 85.0808 74.1001C85.0808 75.1704 84.6593 76.0534 83.8165 76.7491C82.987 77.4315 82.0103 77.7726 80.8865 77.7726C80.5654 77.7726 80.2242 77.7459 79.863 77.6924C79.5018 77.6522 79.2007 77.6121 78.9599 77.5719C78.7191 77.5184 78.4114 77.4515 78.0368 77.3713C77.6755 77.2776 77.4213 77.2174 77.2742 77.1906C76.9397 75.545 76.7725 74.4814 76.7725 73.9998C76.7725 73.9195 76.8795 73.8794 77.0936 73.8794C77.3344 73.8794 77.5016 73.9396 77.5953 74.06C78.0501 75.9865 79.1606 76.9498 80.9266 76.9498C81.5956 76.9498 82.1642 76.7491 82.6324 76.3478C83.1007 75.9464 83.3348 75.3778 83.3348 74.642C83.3348 74.3744 83.2947 74.1269 83.2144 73.8994C83.1341 73.672 83.0472 73.4847 82.9535 73.3375C82.8732 73.1904 82.7194 73.0365 82.4919 72.876C82.2779 72.702 82.1106 72.5749 81.9902 72.4947C81.8698 72.4144 81.6491 72.2873 81.328 72.1134C81.0069 71.9394 80.7861 71.819 80.6657 71.7521C80.2777 71.5247 80.0035 71.3641 79.8429 71.2705C79.6958 71.1768 79.4416 71.0163 79.0803 70.7888C78.7325 70.548 78.4783 70.3406 78.3177 70.1667C78.1572 69.9794 77.9699 69.7587 77.7558 69.5045C77.5417 69.2369 77.3879 68.9559 77.2942 68.6616C77.214 68.3673 77.1738 68.0595 77.1738 67.7385Z" fill="white"/>
<path d="M129.92 64.367C130.843 64.3937 131.599 64.4071 132.188 64.4071C132.776 64.4071 133.532 64.3937 134.455 64.367C135.378 64.3402 136.094 64.3268 136.603 64.3268C136.937 64.3268 137.399 64.2532 137.987 64.1061L138.369 66.9759C138.275 67.0695 138.114 67.1163 137.887 67.1163C137.767 67.1163 137.7 67.0829 137.686 67.016C137.499 66.2668 137.265 65.7851 136.984 65.5711C136.716 65.3436 136.201 65.2299 135.439 65.2299C134.021 65.2299 133.285 65.3302 133.231 65.5309C133.111 65.9591 133.051 66.628 133.051 67.5378V74.7824C133.051 75.5584 133.111 76.1805 133.231 76.6488C133.258 76.7425 133.445 76.8361 133.793 76.9298C134.141 77.01 134.382 77.0502 134.516 77.0502C134.569 77.0502 134.596 77.1505 134.596 77.3512C134.596 77.4582 134.582 77.5519 134.556 77.6322C133.218 77.5653 132.442 77.5318 132.228 77.5318C132.161 77.5318 131.358 77.5653 129.82 77.6322C129.766 77.5786 129.739 77.4783 129.739 77.3311C129.739 77.1438 129.766 77.0502 129.82 77.0502C129.993 77.0502 130.248 77.01 130.582 76.9298C130.93 76.8495 131.124 76.7558 131.164 76.6488C131.258 76.2876 131.305 75.6922 131.305 74.8627V67.598C131.305 66.434 131.244 65.745 131.124 65.5309C131.017 65.3302 130.295 65.2299 128.957 65.2299C128.194 65.2299 127.672 65.3436 127.391 65.5711C127.124 65.7851 126.896 66.2668 126.709 67.016C126.696 67.0829 126.629 67.1163 126.508 67.1163C126.281 67.1163 126.12 67.0695 126.027 66.9759L126.408 64.1061C126.997 64.2532 127.458 64.3268 127.793 64.3268C128.301 64.3268 129.01 64.3402 129.92 64.367Z" fill="white"/>
<path d="M181.703 64.387C181.917 64.387 182.693 64.3536 184.031 64.2867C184.057 64.367 184.071 64.4606 184.071 64.5677C184.071 64.7683 184.044 64.8687 183.99 64.8687C183.857 64.8687 183.616 64.9155 183.268 65.0092C182.92 65.1028 182.733 65.1965 182.706 65.2901C182.586 65.7584 182.525 66.3805 182.525 67.1565V71.6317C182.525 73.1435 182.847 74.3476 183.489 75.244C184.131 76.1404 185.041 76.5886 186.218 76.5886C188.506 76.5886 189.65 75.0835 189.65 72.0732V67.0561C189.65 66.24 189.603 65.6513 189.509 65.2901C189.469 65.1831 189.235 65.0827 188.807 64.9891C188.392 64.8821 188.098 64.8285 187.924 64.8285C187.87 64.8285 187.844 64.755 187.844 64.6078C187.844 64.4472 187.87 64.3402 187.924 64.2867C188.098 64.3001 188.446 64.3268 188.967 64.367C189.489 64.3937 189.931 64.4071 190.292 64.4071C190.64 64.4071 191.075 64.387 191.596 64.3469C192.132 64.3068 192.446 64.2867 192.54 64.2867C192.566 64.367 192.58 64.4673 192.58 64.5877C192.58 64.7483 192.553 64.8285 192.499 64.8285C192.366 64.8285 192.071 64.8821 191.616 64.9891C191.175 65.0961 190.941 65.1965 190.914 65.2901C190.807 65.7049 190.754 66.327 190.754 67.1565V72.0331C190.754 74.1068 190.319 75.5517 189.449 76.3678C188.579 77.1706 187.342 77.5719 185.736 77.5719C184.144 77.5719 182.92 77.1037 182.064 76.1672C181.208 75.2306 180.78 73.7188 180.78 71.6317V67.0762C180.78 66.2467 180.733 65.6513 180.639 65.2901C180.599 65.1831 180.405 65.0894 180.057 65.0092C179.723 64.9155 179.468 64.8687 179.294 64.8687C179.241 64.8687 179.214 64.7817 179.214 64.6078C179.214 64.4472 179.241 64.3402 179.294 64.2867C180.833 64.3536 181.636 64.387 181.703 64.387Z" fill="white"/>
<path d="M235.793 64.4071C236.302 64.4071 236.944 64.4004 237.72 64.387C238.509 64.3737 239.031 64.367 239.285 64.367C241.466 64.367 243.165 65.0092 244.383 66.2935C245.6 67.5779 246.209 69.0897 246.209 70.829C246.209 72.7689 245.593 74.3878 244.363 75.6855C243.132 76.9833 241.433 77.6322 239.265 77.6322C239.105 77.6322 238.623 77.6188 237.82 77.592C237.031 77.5653 236.369 77.5586 235.833 77.5719L233.405 77.6322C233.365 77.592 233.345 77.4917 233.345 77.3311C233.345 77.1438 233.365 77.0502 233.405 77.0502C233.579 77.0502 233.833 77.0033 234.168 76.9097C234.516 76.816 234.723 76.709 234.79 76.5886C234.884 76.4281 234.93 75.7992 234.93 74.7022V67.1163C234.93 66.327 234.884 65.7517 234.79 65.3905C234.75 65.2834 234.549 65.1831 234.188 65.0894C233.84 64.9958 233.579 64.949 233.405 64.949C233.352 64.949 233.325 64.8687 233.325 64.7081C233.325 64.5342 233.352 64.4205 233.405 64.367C234.101 64.3937 234.897 64.4071 235.793 64.4071ZM236.676 66.8354V74.7824C236.676 75.3444 236.777 75.8528 236.977 76.3076C237.031 76.4414 237.385 76.5418 238.041 76.6087C238.71 76.6756 239.225 76.709 239.586 76.709C242.663 76.709 244.202 74.7222 244.202 70.7487C244.202 69.2235 243.794 67.9258 242.978 66.8554C242.175 65.7851 240.998 65.25 239.446 65.25H239.345C237.901 65.25 237.098 65.357 236.937 65.5711C236.763 65.8119 236.676 66.2333 236.676 66.8354Z" fill="white"/>
<path d="M289.121 67.0762C289.121 66.2467 289.075 65.6513 288.981 65.2901C288.941 65.1831 288.747 65.0894 288.399 65.0092C288.064 64.9155 287.81 64.8687 287.636 64.8687C287.583 64.8687 287.556 64.7817 287.556 64.6078C287.556 64.4472 287.583 64.3402 287.636 64.2867C289.175 64.3536 289.978 64.387 290.045 64.387C290.259 64.387 291.035 64.3536 292.372 64.2867C292.399 64.367 292.413 64.4673 292.413 64.5877C292.413 64.775 292.386 64.8687 292.332 64.8687C292.199 64.8687 291.958 64.9155 291.61 65.0092C291.262 65.1028 291.075 65.1965 291.048 65.2901C290.928 65.7584 290.867 66.3805 290.867 67.1565V74.7824C290.867 75.5584 290.928 76.1805 291.048 76.6488C291.075 76.7425 291.262 76.8361 291.61 76.9298C291.958 77.01 292.199 77.0502 292.332 77.0502C292.386 77.0502 292.413 77.1505 292.413 77.3512C292.413 77.4582 292.399 77.5519 292.372 77.6322C291.035 77.5653 290.259 77.5318 290.045 77.5318C289.978 77.5318 289.175 77.5653 287.636 77.6322C287.583 77.5786 287.556 77.4783 287.556 77.3311C287.556 77.1438 287.583 77.0502 287.636 77.0502C287.81 77.0502 288.064 77.01 288.399 76.9298C288.747 76.8495 288.941 76.7558 288.981 76.6488C289.075 76.2876 289.121 75.6922 289.121 74.8627V67.0762Z" fill="white"/>
<path d="M339.82 65.0292C338.549 65.0292 337.546 65.5844 336.81 66.6949C336.074 67.8053 335.706 69.0897 335.706 70.548C335.706 71.6183 335.88 72.6284 336.228 73.5783C336.576 74.5282 337.118 75.3243 337.854 75.9665C338.59 76.5953 339.453 76.9097 340.443 76.9097C341.299 76.9097 342.048 76.6354 342.69 76.0869C343.332 75.525 343.801 74.836 344.095 74.0198C344.403 73.1904 344.557 72.3073 344.557 71.3708C344.557 70.3005 344.383 69.2971 344.035 68.3606C343.687 67.4107 343.145 66.6213 342.409 65.9925C341.673 65.3503 340.811 65.0292 339.82 65.0292ZM335.586 75.7859C334.342 74.4614 333.72 72.8626 333.72 70.9895C333.72 69.1165 334.342 67.5177 335.586 66.1932C336.844 64.8553 338.355 64.1864 340.121 64.1864C341.888 64.1864 343.399 64.8553 344.657 66.1932C345.915 67.5177 346.543 69.1165 346.543 70.9895C346.543 72.8626 345.915 74.4614 344.657 75.7859C343.399 77.1104 341.888 77.7726 340.121 77.7726C338.355 77.7726 336.844 77.1104 335.586 75.7859Z" fill="white"/>
<line x1="74.6982" y1="49.222" x2="348.698" y2="49.222" stroke="#AC9C80"/>
</svg>
