<svg width="349" height="78" viewBox="0 0 349 78" fill="none" xmlns="http://www.w3.org/2000/svg">
<path fill-rule="evenodd" clip-rule="evenodd" d="M28.2657 25.6845C30.0105 23.9396 32.8394 23.9396 34.5842 25.6845L44.8095 35.9097C52.6612 43.7614 52.6612 56.4916 44.8095 64.3433L34.5842 74.5685C32.8394 76.3133 30.0105 76.3133 28.2656 74.5685V74.5685C26.5208 72.8237 26.5208 69.9948 28.2656 68.2499L38.4909 58.0247C42.853 53.6626 42.853 46.5903 38.4909 42.2283L28.2657 32.003C26.5208 30.2582 26.5208 27.4293 28.2657 25.6845V25.6845Z" fill="white"/>
<path fill-rule="evenodd" clip-rule="evenodd" d="M22.7343 25.6845C20.9895 23.9396 18.1606 23.9396 16.4158 25.6845L6.19054 35.9097C-1.66117 43.7614 -1.66117 56.4916 6.19054 64.3433L16.4158 74.5685C18.1606 76.3133 20.9895 76.3133 22.7344 74.5685V74.5685C24.4792 72.8237 24.4792 69.9948 22.7344 68.2499L12.5091 58.0247C8.14704 53.6626 8.14704 46.5903 12.5091 42.2283L22.7343 32.003C24.4792 30.2582 24.4792 27.4293 22.7343 25.6845V25.6845Z" fill="#324072"/>
<path fill-rule="evenodd" clip-rule="evenodd" d="M28.4526 3.88711C30.1974 5.63193 30.1974 8.46085 28.4526 10.2057L18.2274 20.4309C13.8653 24.793 13.8653 31.8653 18.2274 36.2273L28.4526 46.4526C30.1974 48.1974 30.1974 51.0263 28.4526 52.7711V52.7711C26.7078 54.516 23.8789 54.516 22.134 52.7711L11.9088 42.5459C4.05709 34.6942 4.0571 21.9641 11.9088 14.1124L22.134 3.88711C23.8789 2.14229 26.7078 2.14229 28.4526 3.88711V3.88711Z" fill="white"/>
<path fill-rule="evenodd" clip-rule="evenodd" d="M22.5476 3.88711C20.8028 5.63193 20.8028 8.46085 22.5476 10.2057L32.7729 20.4309C37.1349 24.793 37.1349 31.8653 32.7729 36.2273L22.5476 46.4526C20.8028 48.1974 20.8028 51.0263 22.5476 52.7711V52.7711C24.2925 54.516 27.1214 54.516 28.8662 52.7711L39.0914 42.5459C46.9432 34.6942 46.9431 21.9641 39.0914 14.1124L28.8662 3.88711C27.1214 2.14229 24.2925 2.14229 22.5476 3.88711V3.88711Z" fill="#324072"/>
<path d="M76.8399 10.3931C76.8399 7.71729 78.0172 5.43395 80.3719 3.54307C82.7623 1.65218 85.3846 0.706738 88.2387 0.706738C88.9879 0.706738 89.755 0.760254 90.5399 0.867285C91.3605 0.974316 92.0383 1.08135 92.5735 1.18838C93.1443 1.29541 93.9114 1.4738 94.8747 1.72354C95.8736 1.9376 96.6585 2.09814 97.2293 2.20518C97.6218 5.66585 97.818 8.62705 97.818 11.0888C97.6753 11.4455 97.4077 11.6239 97.0153 11.6239C95.9806 11.6239 95.4277 11.4991 95.3563 11.2493C95.1066 9.46546 94.3395 7.7708 93.0551 6.16533C91.7708 4.52419 90.1831 3.70361 88.2922 3.70361C87.0792 3.70361 86.0446 4.07822 85.1883 4.82744C84.3678 5.57666 83.9575 6.77184 83.9575 8.41299C83.9575 9.12653 84.1359 9.82223 84.4926 10.5001C84.8494 11.178 85.4381 11.8737 86.2586 12.5872C87.1149 13.3007 87.8106 13.8359 88.3458 14.1927C88.8809 14.5494 89.755 15.1203 90.968 15.9052C91.2891 16.1192 91.5389 16.2798 91.7172 16.3868C92.0027 16.5652 92.5913 16.922 93.4833 17.4571C94.3752 17.9923 94.9995 18.4026 95.3563 18.688C95.7487 18.9377 96.2661 19.3659 96.9083 19.9724C97.5861 20.5789 98.0678 21.1854 98.3532 21.7919C98.6743 22.3627 98.9597 23.1298 99.2094 24.0931C99.4592 25.0207 99.584 26.0553 99.584 27.197C99.584 30.0511 98.4067 32.4237 96.052 34.3145C93.6973 36.1698 90.9859 37.0974 87.9176 37.0974C85.0991 37.0974 81.7098 36.6336 77.7497 35.706C77.4642 34.5643 77.1788 33.0123 76.8934 31.0501C76.6437 29.0522 76.5188 27.6429 76.5188 26.8224C76.6258 26.4656 76.9469 26.2872 77.4821 26.2872C78.5881 26.2872 79.1589 26.3942 79.1946 26.6083C79.48 28.2494 80.3719 29.9084 81.8704 31.5853C83.3688 33.2264 85.0278 34.047 86.8473 34.047C90.3793 34.047 92.1454 32.1026 92.1454 28.2138C92.1454 27.6073 91.9848 27.0186 91.6637 26.4478C91.3426 25.8412 90.861 25.2526 90.2188 24.6817C89.5766 24.1109 89.0058 23.6471 88.5063 23.2903C88.0068 22.9336 87.2933 22.4698 86.3657 21.8989C85.4737 21.3281 84.9029 20.9535 84.6532 20.7751C84.4748 20.6681 84.2072 20.4897 83.8504 20.2399C82.6731 19.455 81.7812 18.8307 81.1747 18.3669C80.5681 17.9031 79.8546 17.2609 79.034 16.4403C78.2491 15.6198 77.6783 14.7278 77.3215 13.7645C77.0004 12.7656 76.8399 11.6418 76.8399 10.3931Z" fill="#324072"/>
<path d="M140.804 1.24189C143.23 1.34893 145.192 1.40244 146.691 1.40244C148.189 1.40244 150.151 1.34893 152.577 1.24189C155.003 1.13486 156.966 1.08135 158.464 1.08135C159.356 1.08135 160.587 0.885124 162.157 0.492676L163.173 9.26924C162.924 9.51898 162.406 9.64385 161.621 9.64385C161.3 9.64385 161.122 9.55466 161.086 9.37627C160.194 5.84424 158.286 4.07822 155.36 4.07822C152.47 4.07822 150.954 4.39932 150.811 5.0415C150.526 6.04046 150.383 7.62809 150.383 9.80439V29.1235C150.383 30.9074 150.526 32.3523 150.811 33.4583C150.883 33.708 151.364 33.9935 152.256 34.3145C153.184 34.6356 153.808 34.7962 154.129 34.7962C154.272 34.7962 154.343 35.1351 154.343 35.813C154.343 36.2411 154.308 36.5622 154.236 36.7763C153.987 36.7763 152.916 36.7049 151.025 36.5622C149.135 36.4195 147.725 36.3481 146.798 36.3481C145.834 36.3481 144.425 36.4195 142.57 36.5622C140.715 36.6692 139.537 36.7406 139.038 36.7763C138.895 36.6336 138.824 36.3481 138.824 35.92C138.824 35.1708 138.877 34.7962 138.984 34.7962C139.377 34.7962 140.037 34.6535 140.964 34.3681C141.892 34.047 142.409 33.7437 142.516 33.4583C142.766 32.495 142.891 31.1215 142.891 29.3376V9.96494C142.891 7.18213 142.748 5.54098 142.463 5.0415C142.356 4.82744 142.249 4.68473 142.142 4.61338C142.07 4.50635 141.696 4.39932 141.018 4.29228C140.34 4.14958 139.359 4.07822 138.075 4.07822C136.612 4.07822 135.417 4.48851 134.489 5.30908C133.561 6.09398 132.848 7.43187 132.348 9.32275C132.313 9.50114 132.134 9.59033 131.813 9.59033C131.028 9.59033 130.511 9.46546 130.261 9.21572L131.278 0.492676C132.848 0.885124 134.079 1.08135 134.971 1.08135C136.469 1.08135 138.414 1.13486 140.804 1.24189Z" fill="#324072"/>
<path d="M201.985 1.45596C202.806 1.45596 205.357 1.34893 209.638 1.13486C209.709 1.27757 209.727 1.65218 209.691 2.25869C209.691 2.82953 209.638 3.11494 209.531 3.11494C208.996 3.11494 208.389 3.22197 207.711 3.43604C207.069 3.61442 206.73 3.882 206.694 4.23877C206.694 4.52419 206.837 4.91663 207.123 5.41611L212.474 14.8884C212.653 15.0668 212.831 15.0311 213.009 14.7813C214.044 13.2829 215.275 11.3028 216.702 8.84111C218.129 6.3794 218.843 4.86312 218.843 4.29228C218.843 3.50739 217.701 3.11494 215.418 3.11494C215.275 3.11494 215.186 2.82953 215.15 2.25869C215.15 1.65218 215.221 1.27757 215.364 1.13486C218.575 1.34893 220.733 1.45596 221.839 1.45596C222.767 1.45596 224.783 1.34893 227.887 1.13486C227.994 1.45596 228.047 1.77705 228.047 2.09814C228.047 2.74033 227.976 3.06143 227.833 3.06143C227.191 3.06143 226.46 3.22197 225.639 3.54307C224.818 3.86416 224.158 4.3458 223.659 4.98799C222.731 6.23669 220.93 8.98382 218.254 13.2294C215.614 17.475 214.294 19.8297 214.294 20.2935V28.8024C214.294 30.8004 214.436 32.3523 214.722 33.4583C214.793 33.708 215.275 33.9935 216.167 34.3145C217.094 34.6356 217.719 34.7962 218.04 34.7962C218.183 34.7962 218.254 35.1351 218.254 35.813C218.254 36.2411 218.218 36.5622 218.147 36.7763C217.897 36.7763 216.827 36.7049 214.936 36.5622C213.045 36.4195 211.636 36.3481 210.708 36.3481C209.745 36.3481 208.336 36.4195 206.48 36.5622C204.625 36.6692 203.448 36.7406 202.948 36.7763C202.806 36.6336 202.734 36.3481 202.734 35.92C202.734 35.1708 202.788 34.7962 202.895 34.7962C203.287 34.7962 203.947 34.6535 204.875 34.3681C205.803 34.047 206.32 33.7437 206.427 33.4583C206.677 32.495 206.802 31.0501 206.802 29.1235V20.0259C206.802 19.7761 206.231 18.6345 205.089 16.6009C203.983 14.5673 202.877 12.5872 201.771 10.6606L200.112 7.82432C198.935 5.64802 197.971 4.3458 197.222 3.91768C196.33 3.38252 195.385 3.11494 194.386 3.11494C194.243 3.11494 194.172 2.82953 194.172 2.25869C194.172 1.65218 194.243 1.27757 194.386 1.13486C194.992 1.17054 195.795 1.22406 196.794 1.29541C197.793 1.33109 198.703 1.36676 199.523 1.40244C200.38 1.43812 201.2 1.45596 201.985 1.45596Z" fill="#324072"/>
<path d="M265.628 1.45596C266.342 1.45596 268.839 1.34893 273.12 1.13486C273.227 1.45596 273.281 1.77705 273.281 2.09814C273.281 2.77601 273.209 3.11494 273.067 3.11494C272.746 3.11494 272.103 3.27549 271.14 3.59658C270.177 3.882 269.66 4.14958 269.588 4.39932C269.338 5.3626 269.214 6.78968 269.214 8.68056V28.963C269.214 30.7112 269.356 31.9955 269.642 32.8161C269.82 33.3869 271.033 33.6724 273.281 33.6724H274.672C276.884 33.6724 278.882 33.2086 280.666 32.281C281.272 31.9599 281.95 31.3534 282.7 30.4614C283.484 29.5695 284.091 28.5705 284.519 27.4646C284.59 27.2505 284.84 27.1435 285.268 27.1435C286.125 27.1435 286.66 27.2505 286.874 27.4646C285.126 32.388 284.162 35.4562 283.984 36.6692C281.95 36.6692 278.775 36.6336 274.458 36.5622C270.141 36.4909 267.216 36.4552 265.682 36.4552L257.868 36.7763C257.726 36.6336 257.654 36.3303 257.654 35.8665C257.654 35.153 257.726 34.7962 257.868 34.7962C258.296 34.7962 258.956 34.6713 259.848 34.4216C260.776 34.1718 261.293 33.9043 261.4 33.6188C261.614 32.7983 261.721 31.2285 261.721 28.9095V8.4665C261.721 6.2902 261.579 4.95231 261.293 4.45283C261.115 4.16741 260.615 3.882 259.795 3.59658C258.974 3.27549 258.368 3.11494 257.975 3.11494C257.833 3.11494 257.761 2.81169 257.761 2.20518C257.761 1.56299 257.797 1.20622 257.868 1.13486C262.792 1.34893 265.378 1.45596 265.628 1.45596Z" fill="#324072"/>
<path d="M325.632 1.29541C327.202 1.29541 329.967 1.25973 333.927 1.18838C337.887 1.08135 340.884 1.02783 342.917 1.02783C342.953 1.3846 343.47 4.02471 344.469 8.94814C344.291 9.12653 343.881 9.21572 343.239 9.21572C342.846 9.21572 342.596 9.09085 342.489 8.84111C341.811 7.48538 340.741 6.32588 339.278 5.3626C337.816 4.39932 336.389 3.91768 334.997 3.91768H332.964C330.716 3.91768 329.556 4.14958 329.485 4.61338C329.307 5.46963 329.217 6.86104 329.217 8.7876V17.029C329.217 17.2431 329.984 17.3501 331.519 17.3501H334.355C336.567 17.3501 337.78 17.2787 337.994 17.136C338.172 16.9933 338.315 16.476 338.422 15.5841C338.493 15.0489 338.601 14.5316 338.743 14.0321C338.779 13.7824 339.046 13.6575 339.546 13.6575C340.152 13.6575 340.545 13.7467 340.723 13.9251V24.0396C340.581 24.1823 340.206 24.2536 339.599 24.2536C339.136 24.2536 338.85 24.1109 338.743 23.8255C338.601 23.326 338.476 22.8979 338.369 22.5411C338.262 22.1843 338.172 21.9168 338.101 21.7384C338.03 21.56 337.94 21.3994 337.833 21.2567C337.762 21.114 337.709 21.0248 337.673 20.9892C337.637 20.9535 337.566 20.9178 337.459 20.8821C337.352 20.8108 337.28 20.7573 337.245 20.7216C336.781 20.4362 335.39 20.2935 333.071 20.2935C330.502 20.2935 329.217 20.454 329.217 20.7751V29.0165C329.217 30.729 329.36 31.9955 329.646 32.8161C329.824 33.3869 331.037 33.6724 333.285 33.6724H334.676C336.888 33.6724 338.886 33.2086 340.67 32.281C341.276 31.9599 341.954 31.3534 342.703 30.4614C343.488 29.5695 344.095 28.5705 344.523 27.4646C344.559 27.2505 344.808 27.1435 345.272 27.1435C346.128 27.1435 346.664 27.2505 346.878 27.4646C345.129 32.388 344.166 35.4562 343.988 36.6692C342.168 36.6692 339.278 36.6336 335.318 36.5622C331.358 36.4909 328.147 36.4552 325.685 36.4552L317.872 36.7763C317.729 36.6336 317.658 36.3303 317.658 35.8665C317.658 35.153 317.729 34.7962 317.872 34.7962C318.3 34.7962 318.96 34.6713 319.852 34.4216C320.78 34.1718 321.297 33.9043 321.404 33.6188C321.618 32.7983 321.725 31.2285 321.725 28.9095V8.68056C321.725 6.71833 321.618 5.32692 321.404 4.50635C321.297 4.22093 320.762 3.89984 319.799 3.54307C318.871 3.1863 318.211 3.00791 317.819 3.00791C317.676 3.00791 317.605 2.68682 317.605 2.04463C317.605 1.47379 317.658 1.13486 317.765 1.02783C320.619 1.20622 323.242 1.29541 325.632 1.29541Z" fill="#324072"/>
<path d="M77.1738 67.9288C77.1738 66.8986 77.5685 66.0557 78.3579 65.4001C79.1472 64.7312 80.0637 64.3967 81.1072 64.3967C81.4016 64.3967 81.6758 64.4168 81.93 64.4569C82.1976 64.4837 82.4117 64.5171 82.5722 64.5573C82.7461 64.5974 82.987 64.6643 83.2947 64.758C83.6158 64.8382 83.8967 64.9051 84.1375 64.9586C84.2981 65.6677 84.3784 66.6243 84.3784 67.8284C84.3784 67.9221 84.3115 67.9689 84.1777 67.9689C83.8566 67.9689 83.6827 67.902 83.6559 67.7682C83.589 67.1795 83.3014 66.6109 82.793 66.0624C82.2979 65.5005 81.6892 65.2195 80.9667 65.2195C80.164 65.2195 79.5954 65.4202 79.2609 65.8216C78.9398 66.2229 78.7793 66.718 78.7793 67.3066C78.7793 67.5608 78.8261 67.8083 78.9198 68.0492C79.0134 68.2766 79.1071 68.4706 79.2007 68.6312C79.2944 68.7783 79.4616 68.9522 79.7024 69.1529C79.9566 69.3536 80.1373 69.4941 80.2443 69.5744C80.3647 69.6546 80.5921 69.8018 80.9266 70.0159C81.2745 70.2299 81.4952 70.3637 81.5889 70.4172C81.6558 70.4574 81.8899 70.6045 82.2913 70.8587C82.6926 71.0996 82.9669 71.2735 83.1141 71.3805C83.2612 71.4742 83.4887 71.6548 83.7964 71.9224C84.1175 72.1766 84.3449 72.404 84.4787 72.6047C84.6259 72.8054 84.7597 73.0596 84.8801 73.3673C85.0139 73.6616 85.0808 73.9693 85.0808 74.2904C85.0808 75.3607 84.6593 76.2437 83.8165 76.9395C82.987 77.6218 82.0103 77.9629 80.8865 77.9629C80.5654 77.9629 80.2242 77.9362 79.863 77.8827C79.5018 77.8425 79.2007 77.8024 78.9599 77.7623C78.7191 77.7087 78.4114 77.6418 78.0368 77.5616C77.6755 77.4679 77.4213 77.4077 77.2742 77.381C76.9397 75.7354 76.7725 74.6717 76.7725 74.1901C76.7725 74.1098 76.8795 74.0697 77.0936 74.0697C77.3344 74.0697 77.5016 74.1299 77.5953 74.2503C78.0501 76.1769 79.1606 77.1401 80.9266 77.1401C81.5956 77.1401 82.1642 76.9395 82.6324 76.5381C83.1007 76.1367 83.3348 75.5681 83.3348 74.8323C83.3348 74.5647 83.2947 74.3172 83.2144 74.0897C83.1341 73.8623 83.0472 73.675 82.9535 73.5278C82.8732 73.3807 82.7194 73.2268 82.4919 73.0663C82.2779 72.8923 82.1106 72.7652 81.9902 72.685C81.8698 72.6047 81.6491 72.4776 81.328 72.3037C81.0069 72.1297 80.7861 72.0093 80.6657 71.9424C80.2777 71.715 80.0035 71.5544 79.8429 71.4608C79.6958 71.3671 79.4416 71.2066 79.0803 70.9792C78.7325 70.7383 78.4783 70.531 78.3177 70.357C78.1572 70.1697 77.9699 69.949 77.7558 69.6948C77.5417 69.4272 77.3879 69.1462 77.2942 68.8519C77.214 68.5576 77.1738 68.2499 77.1738 67.9288Z" fill="#324072"/>
<path d="M129.92 64.5573C130.843 64.584 131.599 64.5974 132.188 64.5974C132.776 64.5974 133.532 64.584 134.455 64.5573C135.378 64.5305 136.094 64.5171 136.603 64.5171C136.937 64.5171 137.399 64.4436 137.987 64.2964L138.369 67.1662C138.275 67.2598 138.114 67.3066 137.887 67.3066C137.767 67.3066 137.7 67.2732 137.686 67.2063C137.499 66.4571 137.265 65.9754 136.984 65.7614C136.716 65.5339 136.201 65.4202 135.439 65.4202C134.021 65.4202 133.285 65.5206 133.231 65.7212C133.111 66.1494 133.051 66.8183 133.051 67.7281V74.9728C133.051 75.7487 133.111 76.3708 133.231 76.8391C133.258 76.9328 133.445 77.0264 133.793 77.1201C134.141 77.2003 134.382 77.2405 134.516 77.2405C134.569 77.2405 134.596 77.3408 134.596 77.5415C134.596 77.6485 134.582 77.7422 134.556 77.8225C133.218 77.7556 132.442 77.7221 132.228 77.7221C132.161 77.7221 131.358 77.7556 129.82 77.8225C129.766 77.7689 129.739 77.6686 129.739 77.5214C129.739 77.3341 129.766 77.2405 129.82 77.2405C129.993 77.2405 130.248 77.2003 130.582 77.1201C130.93 77.0398 131.124 76.9461 131.164 76.8391C131.258 76.4779 131.305 75.8825 131.305 75.053V67.7883C131.305 66.6243 131.244 65.9353 131.124 65.7212C131.017 65.5206 130.295 65.4202 128.957 65.4202C128.194 65.4202 127.672 65.5339 127.391 65.7614C127.124 65.9754 126.896 66.4571 126.709 67.2063C126.696 67.2732 126.629 67.3066 126.508 67.3066C126.281 67.3066 126.12 67.2598 126.027 67.1662L126.408 64.2964C126.997 64.4436 127.458 64.5171 127.793 64.5171C128.301 64.5171 129.01 64.5305 129.92 64.5573Z" fill="#324072"/>
<path d="M181.703 64.5773C181.917 64.5773 182.693 64.5439 184.031 64.477C184.057 64.5573 184.071 64.6509 184.071 64.758C184.071 64.9586 184.044 65.059 183.99 65.059C183.857 65.059 183.616 65.1058 183.268 65.1995C182.92 65.2931 182.733 65.3868 182.706 65.4804C182.586 65.9487 182.525 66.5708 182.525 67.3468V71.822C182.525 73.3338 182.847 74.5379 183.489 75.4343C184.131 76.3307 185.041 76.7789 186.218 76.7789C188.506 76.7789 189.65 75.2738 189.65 72.2635V67.2464C189.65 66.4303 189.603 65.8417 189.509 65.4804C189.469 65.3734 189.235 65.273 188.807 65.1794C188.392 65.0724 188.098 65.0188 187.924 65.0188C187.87 65.0188 187.844 64.9453 187.844 64.7981C187.844 64.6375 187.87 64.5305 187.924 64.477C188.098 64.4904 188.446 64.5171 188.967 64.5573C189.489 64.584 189.931 64.5974 190.292 64.5974C190.64 64.5974 191.075 64.5773 191.596 64.5372C192.132 64.4971 192.446 64.477 192.54 64.477C192.566 64.5573 192.58 64.6576 192.58 64.778C192.58 64.9386 192.553 65.0188 192.499 65.0188C192.366 65.0188 192.071 65.0724 191.616 65.1794C191.175 65.2864 190.941 65.3868 190.914 65.4804C190.807 65.8952 190.754 66.5173 190.754 67.3468V72.2234C190.754 74.2971 190.319 75.742 189.449 76.5582C188.579 77.3609 187.342 77.7623 185.736 77.7623C184.144 77.7623 182.92 77.294 182.064 76.3575C181.208 75.4209 180.78 73.9091 180.78 71.822V67.2665C180.78 66.437 180.733 65.8417 180.639 65.4804C180.599 65.3734 180.405 65.2797 180.057 65.1995C179.723 65.1058 179.468 65.059 179.294 65.059C179.241 65.059 179.214 64.972 179.214 64.7981C179.214 64.6375 179.241 64.5305 179.294 64.477C180.833 64.5439 181.636 64.5773 181.703 64.5773Z" fill="#324072"/>
<path d="M235.793 64.5974C236.302 64.5974 236.944 64.5907 237.72 64.5773C238.509 64.564 239.031 64.5573 239.285 64.5573C241.466 64.5573 243.165 65.1995 244.383 66.4838C245.6 67.7682 246.209 69.28 246.209 71.0193C246.209 72.9592 245.593 74.5781 244.363 75.8758C243.132 77.1736 241.433 77.8225 239.265 77.8225C239.105 77.8225 238.623 77.8091 237.82 77.7823C237.031 77.7556 236.369 77.7489 235.833 77.7623L233.405 77.8225C233.365 77.7823 233.345 77.682 233.345 77.5214C233.345 77.3341 233.365 77.2405 233.405 77.2405C233.579 77.2405 233.833 77.1937 234.168 77.1C234.516 77.0063 234.723 76.8993 234.79 76.7789C234.884 76.6184 234.93 75.9895 234.93 74.8925V67.3066C234.93 66.5173 234.884 65.942 234.79 65.5808C234.75 65.4737 234.549 65.3734 234.188 65.2797C233.84 65.1861 233.579 65.1393 233.405 65.1393C233.352 65.1393 233.325 65.059 233.325 64.8984C233.325 64.7245 233.352 64.6108 233.405 64.5573C234.101 64.584 234.897 64.5974 235.793 64.5974ZM236.676 67.0257V74.9728C236.676 75.5347 236.777 76.0431 236.977 76.4979C237.031 76.6317 237.385 76.7321 238.041 76.799C238.71 76.8659 239.225 76.8993 239.586 76.8993C242.663 76.8993 244.202 74.9125 244.202 70.939C244.202 69.4138 243.794 68.1161 242.978 67.0458C242.175 65.9754 240.998 65.4403 239.446 65.4403H239.345C237.901 65.4403 237.098 65.5473 236.937 65.7614C236.763 66.0022 236.676 66.4236 236.676 67.0257Z" fill="#324072"/>
<path d="M289.121 67.2665C289.121 66.437 289.075 65.8417 288.981 65.4804C288.941 65.3734 288.747 65.2797 288.399 65.1995C288.064 65.1058 287.81 65.059 287.636 65.059C287.583 65.059 287.556 64.972 287.556 64.7981C287.556 64.6375 287.583 64.5305 287.636 64.477C289.175 64.5439 289.978 64.5773 290.045 64.5773C290.259 64.5773 291.035 64.5439 292.372 64.477C292.399 64.5573 292.413 64.6576 292.413 64.778C292.413 64.9653 292.386 65.059 292.332 65.059C292.199 65.059 291.958 65.1058 291.61 65.1995C291.262 65.2931 291.075 65.3868 291.048 65.4804C290.928 65.9487 290.867 66.5708 290.867 67.3468V74.9728C290.867 75.7487 290.928 76.3708 291.048 76.8391C291.075 76.9328 291.262 77.0264 291.61 77.1201C291.958 77.2003 292.199 77.2405 292.332 77.2405C292.386 77.2405 292.413 77.3408 292.413 77.5415C292.413 77.6485 292.399 77.7422 292.372 77.8225C291.035 77.7556 290.259 77.7221 290.045 77.7221C289.978 77.7221 289.175 77.7556 287.636 77.8225C287.583 77.7689 287.556 77.6686 287.556 77.5214C287.556 77.3341 287.583 77.2405 287.636 77.2405C287.81 77.2405 288.064 77.2003 288.399 77.1201C288.747 77.0398 288.941 76.9461 288.981 76.8391C289.075 76.4779 289.121 75.8825 289.121 75.053V67.2665Z" fill="#324072"/>
<path d="M339.82 65.2195C338.549 65.2195 337.546 65.7748 336.81 66.8852C336.074 67.9957 335.706 69.28 335.706 70.7383C335.706 71.8086 335.88 72.8187 336.228 73.7687C336.576 74.7186 337.118 75.5146 337.854 76.1568C338.59 76.7856 339.453 77.1 340.443 77.1C341.299 77.1 342.048 76.8257 342.69 76.2772C343.332 75.7153 343.801 75.0263 344.095 74.2102C344.403 73.3807 344.557 72.4977 344.557 71.5611C344.557 70.4908 344.383 69.4874 344.035 68.5509C343.687 67.601 343.145 66.8116 342.409 66.1828C341.673 65.5406 340.811 65.2195 339.82 65.2195ZM335.586 75.9762C334.342 74.6517 333.72 73.0529 333.72 71.1798C333.72 69.3068 334.342 67.708 335.586 66.3835C336.844 65.0456 338.355 64.3767 340.121 64.3767C341.888 64.3767 343.399 65.0456 344.657 66.3835C345.915 67.708 346.543 69.3068 346.543 71.1798C346.543 73.0529 345.915 74.6517 344.657 75.9762C343.399 77.3007 341.888 77.9629 340.121 77.9629C338.355 77.9629 336.844 77.3007 335.586 75.9762Z" fill="#324072"/>
<line x1="74.6982" y1="49.4124" x2="348.698" y2="49.4124" stroke="white"/>
</svg>
