<svg width="349" height="78" viewBox="0 0 349 78" fill="none" xmlns="http://www.w3.org/2000/svg">
<path fill-rule="evenodd" clip-rule="evenodd" d="M28.2657 24.9567C30.0106 23.2118 32.8395 23.2118 34.5843 24.9567L44.8095 35.1819C52.6612 43.0336 52.6613 55.7637 44.8095 63.6154L34.5843 73.8407C32.8395 75.5855 30.0106 75.5855 28.2657 73.8407V73.8407C26.5209 72.0959 26.5209 69.267 28.2657 67.5221L38.491 57.2969C42.853 52.9348 42.853 45.8625 38.491 41.5005L28.2657 31.2752C26.5209 29.5304 26.5209 26.7015 28.2657 24.9567V24.9567Z" fill="#AC9C80"/>
<path fill-rule="evenodd" clip-rule="evenodd" d="M22.7343 24.9567C20.9894 23.2118 18.1605 23.2118 16.4157 24.9567L6.19046 35.1819C-1.66124 43.0336 -1.66125 55.7637 6.19046 63.6154L16.4157 73.8407C18.1605 75.5855 20.9894 75.5855 22.7343 73.8407V73.8407C24.4791 72.0959 24.4791 69.267 22.7343 67.5221L12.509 57.2969C8.14697 52.9348 8.14697 45.8625 12.509 41.5005L22.7343 31.2752C24.4791 29.5304 24.4791 26.7015 22.7343 24.9567V24.9567Z" fill="#324072"/>
<path fill-rule="evenodd" clip-rule="evenodd" d="M28.4526 3.15928C30.1974 4.90411 30.1974 7.73303 28.4526 9.47785L18.2274 19.7031C13.8653 24.0652 13.8653 31.1374 18.2274 35.4995L28.4526 45.7248C30.1974 47.4696 30.1974 50.2985 28.4526 52.0433V52.0433C26.7078 53.7881 23.8789 53.7881 22.134 52.0433L11.9088 41.8181C4.05709 33.9664 4.0571 21.2362 11.9088 13.3845L22.134 3.15928C23.8789 1.41446 26.7078 1.41446 28.4526 3.15928V3.15928Z" fill="#AC9C80"/>
<path fill-rule="evenodd" clip-rule="evenodd" d="M22.5476 3.15928C20.8028 4.90411 20.8028 7.73303 22.5476 9.47785L32.7729 19.7031C37.1349 24.0652 37.1349 31.1374 32.7729 35.4995L22.5476 45.7248C20.8028 47.4696 20.8028 50.2985 22.5476 52.0433V52.0433C24.2925 53.7881 27.1214 53.7881 28.8662 52.0433L39.0914 41.8181C46.9432 33.9664 46.9431 21.2362 39.0914 13.3845L28.8662 3.15928C27.1214 1.41446 24.2925 1.41446 22.5476 3.15928V3.15928Z" fill="#324072"/>
<path d="M76.8399 9.90039C76.8399 7.22461 78.0172 4.94128 80.3719 3.05039C82.7623 1.1595 85.3846 0.214062 88.2387 0.214062C88.9879 0.214062 89.755 0.267578 90.5399 0.374609C91.3605 0.48164 92.0383 0.588672 92.5735 0.695704C93.1443 0.802735 93.9114 0.98112 94.8747 1.23086C95.8736 1.44492 96.6585 1.60547 97.2293 1.7125C97.6218 5.17318 97.818 8.13437 97.818 10.5961C97.6753 10.9529 97.4077 11.1312 97.0153 11.1312C95.9806 11.1312 95.4277 11.0064 95.3563 10.7566C95.1066 8.97279 94.3395 7.27812 93.0551 5.67266C91.7708 4.03151 90.1831 3.21094 88.2922 3.21094C87.0792 3.21094 86.0446 3.58555 85.1883 4.33476C84.3678 5.08398 83.9575 6.27917 83.9575 7.92031C83.9575 8.63385 84.1359 9.32956 84.4926 10.0074C84.8494 10.6853 85.4381 11.381 86.2586 12.0945C87.1149 12.8081 87.8106 13.3432 88.3458 13.7C88.8809 14.0568 89.755 14.6276 90.968 15.4125C91.2891 15.6266 91.5389 15.7871 91.7172 15.8941C92.0027 16.0725 92.5913 16.4293 93.4833 16.9645C94.3752 17.4996 94.9995 17.9099 95.3563 18.1953C95.7487 18.4451 96.2661 18.8732 96.9083 19.4797C97.5861 20.0862 98.0678 20.6927 98.3532 21.2992C98.6743 21.8701 98.9597 22.6371 99.2094 23.6004C99.4592 24.528 99.584 25.5626 99.584 26.7043C99.584 29.5585 98.4067 31.931 96.052 33.8219C93.6973 35.6771 90.9859 36.6047 87.9176 36.6047C85.0991 36.6047 81.7098 36.1409 77.7497 35.2133C77.4642 34.0716 77.1788 32.5197 76.8934 30.5574C76.6437 28.5595 76.5188 27.1503 76.5188 26.3297C76.6258 25.9729 76.9469 25.7945 77.4821 25.7945C78.5881 25.7945 79.1589 25.9016 79.1946 26.1156C79.48 27.7568 80.3719 29.4158 81.8704 31.0926C83.3688 32.7337 85.0278 33.5543 86.8473 33.5543C90.3793 33.5543 92.1454 31.6099 92.1454 27.7211C92.1454 27.1146 91.9848 26.5259 91.6637 25.9551C91.3426 25.3486 90.861 24.7599 90.2188 24.1891C89.5766 23.6182 89.0058 23.1544 88.5063 22.7977C88.0068 22.4409 87.2933 21.9771 86.3657 21.4062C85.4737 20.8354 84.9029 20.4608 84.6532 20.2824C84.4748 20.1754 84.2072 19.997 83.8504 19.7473C82.6731 18.9624 81.7812 18.338 81.1747 17.8742C80.5681 17.4104 79.8546 16.7682 79.034 15.9477C78.2491 15.1271 77.6783 14.2352 77.3215 13.2719C77.0004 12.2729 76.8399 11.1491 76.8399 9.90039Z" fill="#324072"/>
<path d="M140.804 0.749218C143.23 0.856249 145.192 0.909765 146.691 0.909765C148.189 0.909765 150.151 0.856249 152.577 0.749218C155.003 0.642187 156.966 0.588671 158.464 0.588671C159.356 0.588671 160.587 0.392448 162.157 0L163.173 8.77656C162.924 9.0263 162.406 9.15117 161.621 9.15117C161.3 9.15117 161.122 9.06198 161.086 8.88359C160.194 5.35156 158.286 3.58555 155.36 3.58555C152.47 3.58555 150.954 3.90664 150.811 4.54883C150.526 5.54779 150.383 7.13542 150.383 9.31172V28.6309C150.383 30.4147 150.526 31.8596 150.811 32.9656C150.883 33.2154 151.364 33.5008 152.256 33.8219C153.184 34.143 153.808 34.3035 154.129 34.3035C154.272 34.3035 154.343 34.6424 154.343 35.3203C154.343 35.7484 154.308 36.0695 154.236 36.2836C153.987 36.2836 152.916 36.2122 151.025 36.0695C149.135 35.9268 147.725 35.8555 146.798 35.8555C145.834 35.8555 144.425 35.9268 142.57 36.0695C140.715 36.1766 139.537 36.2479 139.038 36.2836C138.895 36.1409 138.824 35.8555 138.824 35.4273C138.824 34.6781 138.877 34.3035 138.984 34.3035C139.377 34.3035 140.037 34.1608 140.964 33.8754C141.892 33.5543 142.409 33.251 142.516 32.9656C142.766 32.0023 142.891 30.6288 142.891 28.8449V9.47226C142.891 6.68945 142.748 5.04831 142.463 4.54883C142.356 4.33477 142.249 4.19206 142.142 4.1207C142.07 4.01367 141.696 3.90664 141.018 3.79961C140.34 3.6569 139.359 3.58555 138.075 3.58555C136.612 3.58555 135.417 3.99583 134.489 4.81641C133.561 5.6013 132.848 6.93919 132.348 8.83008C132.313 9.00846 132.134 9.09766 131.813 9.09766C131.028 9.09766 130.511 8.97278 130.261 8.72305L131.278 0C132.848 0.392448 134.079 0.588671 134.971 0.588671C136.469 0.588671 138.414 0.642187 140.804 0.749218Z" fill="#324072"/>
<path d="M201.985 0.963282C202.806 0.963282 205.357 0.85625 209.638 0.642187C209.709 0.784895 209.727 1.15951 209.691 1.76602C209.691 2.33685 209.638 2.62226 209.531 2.62226C208.996 2.62226 208.389 2.7293 207.711 2.94336C207.069 3.12174 206.73 3.38932 206.694 3.74609C206.694 4.03151 206.837 4.42396 207.123 4.92344L212.474 14.3957C212.653 14.5741 212.831 14.5384 213.009 14.2887C214.044 12.7902 215.275 10.8102 216.702 8.34844C218.129 5.88672 218.843 4.37044 218.843 3.79961C218.843 3.01471 217.701 2.62226 215.418 2.62226C215.275 2.62226 215.186 2.33685 215.15 1.76602C215.15 1.15951 215.221 0.784895 215.364 0.642187C218.575 0.85625 220.733 0.963282 221.839 0.963282C222.767 0.963282 224.783 0.85625 227.887 0.642187C227.994 0.963281 228.047 1.28438 228.047 1.60547C228.047 2.24766 227.976 2.56875 227.833 2.56875C227.191 2.56875 226.46 2.7293 225.639 3.05039C224.818 3.37148 224.158 3.85312 223.659 4.49531C222.731 5.74401 220.93 8.49114 218.254 12.7367C215.614 16.9823 214.294 19.337 214.294 19.8008V28.3098C214.294 30.3077 214.436 31.8596 214.722 32.9656C214.793 33.2154 215.275 33.5008 216.167 33.8219C217.094 34.143 217.719 34.3035 218.04 34.3035C218.183 34.3035 218.254 34.6424 218.254 35.3203C218.254 35.7484 218.218 36.0695 218.147 36.2836C217.897 36.2836 216.827 36.2122 214.936 36.0695C213.045 35.9268 211.636 35.8555 210.708 35.8555C209.745 35.8555 208.336 35.9268 206.48 36.0695C204.625 36.1766 203.448 36.2479 202.948 36.2836C202.806 36.1409 202.734 35.8555 202.734 35.4273C202.734 34.6781 202.788 34.3035 202.895 34.3035C203.287 34.3035 203.947 34.1608 204.875 33.8754C205.803 33.5543 206.32 33.251 206.427 32.9656C206.677 32.0023 206.802 30.5574 206.802 28.6309V19.5332C206.802 19.2835 206.231 18.1418 205.089 16.1082C203.983 14.0746 202.877 12.0945 201.771 10.168L200.112 7.33164C198.935 5.15534 197.971 3.85312 197.222 3.425C196.33 2.88984 195.385 2.62226 194.386 2.62226C194.243 2.62226 194.172 2.33685 194.172 1.76602C194.172 1.15951 194.243 0.784895 194.386 0.642187C194.992 0.677864 195.795 0.73138 196.794 0.802734C197.793 0.838411 198.703 0.874088 199.523 0.909765C200.38 0.945442 201.2 0.963282 201.985 0.963282Z" fill="#324072"/>
<path d="M265.628 0.963282C266.342 0.963282 268.839 0.85625 273.12 0.642187C273.227 0.963281 273.281 1.28438 273.281 1.60547C273.281 2.28333 273.209 2.62226 273.067 2.62226C272.746 2.62226 272.103 2.78281 271.14 3.10391C270.177 3.38932 269.66 3.6569 269.588 3.90664C269.338 4.86992 269.214 6.297 269.214 8.18789V28.4703C269.214 30.2185 269.356 31.5029 269.642 32.3234C269.82 32.8943 271.033 33.1797 273.281 33.1797H274.672C276.884 33.1797 278.882 32.7159 280.666 31.7883C281.272 31.4672 281.95 30.8607 282.7 29.9688C283.484 29.0768 284.091 28.0779 284.519 26.9719C284.59 26.7578 284.84 26.6508 285.268 26.6508C286.125 26.6508 286.66 26.7578 286.874 26.9719C285.126 31.8953 284.162 34.9635 283.984 36.1766C281.95 36.1766 278.775 36.1409 274.458 36.0695C270.141 35.9982 267.216 35.9625 265.682 35.9625L257.868 36.2836C257.726 36.1409 257.654 35.8376 257.654 35.3738C257.654 34.6603 257.726 34.3035 257.868 34.3035C258.296 34.3035 258.956 34.1786 259.848 33.9289C260.776 33.6792 261.293 33.4116 261.4 33.1262C261.614 32.3056 261.721 30.7358 261.721 28.4168V7.97383C261.721 5.79753 261.579 4.45963 261.293 3.96016C261.115 3.67474 260.615 3.38932 259.795 3.10391C258.974 2.78281 258.368 2.62226 257.975 2.62226C257.833 2.62226 257.761 2.31901 257.761 1.7125C257.761 1.07031 257.797 0.713541 257.868 0.642187C262.792 0.85625 265.378 0.963282 265.628 0.963282Z" fill="#324072"/>
<path d="M325.632 0.802734C327.202 0.802734 329.967 0.767058 333.927 0.695704C337.887 0.588672 340.884 0.535156 342.917 0.535156C342.953 0.891927 343.47 3.53203 344.469 8.45547C344.291 8.63385 343.881 8.72305 343.239 8.72305C342.846 8.72305 342.596 8.59818 342.489 8.34844C341.811 6.99271 340.741 5.8332 339.278 4.86992C337.816 3.90664 336.389 3.425 334.997 3.425H332.964C330.716 3.425 329.556 3.6569 329.485 4.1207C329.307 4.97695 329.217 6.36836 329.217 8.29492V16.5363C329.217 16.7504 329.984 16.8574 331.519 16.8574H334.355C336.567 16.8574 337.78 16.7861 337.994 16.6434C338.172 16.5007 338.315 15.9833 338.422 15.0914C338.493 14.5562 338.601 14.0389 338.743 13.5395C338.779 13.2897 339.046 13.1648 339.546 13.1648C340.152 13.1648 340.545 13.254 340.723 13.4324V23.5469C340.581 23.6896 340.206 23.7609 339.599 23.7609C339.136 23.7609 338.85 23.6182 338.743 23.3328C338.601 22.8333 338.476 22.4052 338.369 22.0484C338.262 21.6917 338.172 21.4241 338.101 21.2457C338.03 21.0673 337.94 20.9068 337.833 20.7641C337.762 20.6214 337.709 20.5322 337.673 20.4965C337.637 20.4608 337.566 20.4251 337.459 20.3895C337.352 20.3181 337.28 20.2646 337.245 20.2289C336.781 19.9435 335.39 19.8008 333.071 19.8008C330.502 19.8008 329.217 19.9613 329.217 20.2824V28.5238C329.217 30.2363 329.36 31.5029 329.646 32.3234C329.824 32.8943 331.037 33.1797 333.285 33.1797H334.676C336.888 33.1797 338.886 32.7159 340.67 31.7883C341.276 31.4672 341.954 30.8607 342.703 29.9688C343.488 29.0768 344.095 28.0779 344.523 26.9719C344.559 26.7578 344.808 26.6508 345.272 26.6508C346.128 26.6508 346.664 26.7578 346.878 26.9719C345.129 31.8953 344.166 34.9635 343.988 36.1766C342.168 36.1766 339.278 36.1409 335.318 36.0695C331.358 35.9982 328.147 35.9625 325.685 35.9625L317.872 36.2836C317.729 36.1409 317.658 35.8376 317.658 35.3738C317.658 34.6603 317.729 34.3035 317.872 34.3035C318.3 34.3035 318.96 34.1786 319.852 33.9289C320.78 33.6792 321.297 33.4116 321.404 33.1262C321.618 32.3056 321.725 30.7358 321.725 28.4168V8.18789C321.725 6.22565 321.618 4.83424 321.404 4.01367C321.297 3.72826 320.762 3.40716 319.799 3.05039C318.871 2.69362 318.211 2.51523 317.819 2.51523C317.676 2.51523 317.605 2.19414 317.605 1.55195C317.605 0.981119 317.658 0.642187 317.765 0.535156C320.619 0.713542 323.242 0.802734 325.632 0.802734Z" fill="#324072"/>
<path d="M77.1738 67.4361C77.1738 66.4059 77.5685 65.563 78.3579 64.9075C79.1472 64.2385 80.0637 63.9041 81.1072 63.9041C81.4016 63.9041 81.6758 63.9241 81.93 63.9643C82.1976 63.991 82.4117 64.0245 82.5722 64.0646C82.7461 64.1047 82.987 64.1716 83.2947 64.2653C83.6158 64.3456 83.8967 64.4125 84.1375 64.466C84.2981 65.175 84.3784 66.1316 84.3784 67.3357C84.3784 67.4294 84.3115 67.4762 84.1777 67.4762C83.8566 67.4762 83.6827 67.4093 83.6559 67.2755C83.589 66.6869 83.3014 66.1183 82.793 65.5697C82.2979 65.0078 81.6892 64.7269 80.9667 64.7269C80.164 64.7269 79.5954 64.9275 79.2609 65.3289C78.9398 65.7303 78.7793 66.2253 78.7793 66.814C78.7793 67.0682 78.8261 67.3157 78.9198 67.5565C79.0134 67.7839 79.1071 67.9779 79.2007 68.1385C79.2944 68.2856 79.4616 68.4596 79.7024 68.6603C79.9566 68.8609 80.1373 69.0014 80.2443 69.0817C80.3647 69.162 80.5921 69.3091 80.9266 69.5232C81.2745 69.7373 81.4952 69.871 81.5889 69.9246C81.6558 69.9647 81.8899 70.1119 82.2913 70.3661C82.6926 70.6069 82.9669 70.7808 83.1141 70.8878C83.2612 70.9815 83.4887 71.1621 83.7964 71.4297C84.1175 71.6839 84.3449 71.9113 84.4787 72.112C84.6259 72.3127 84.7597 72.5669 84.8801 72.8746C85.0139 73.1689 85.0808 73.4767 85.0808 73.7978C85.0808 74.8681 84.6593 75.7511 83.8165 76.4468C82.987 77.1291 82.0103 77.4703 80.8865 77.4703C80.5654 77.4703 80.2242 77.4435 79.863 77.39C79.5018 77.3499 79.2007 77.3097 78.9599 77.2696C78.7191 77.2161 78.4114 77.1492 78.0368 77.0689C77.6755 76.9752 77.4213 76.915 77.2742 76.8883C76.9397 75.2427 76.7725 74.1791 76.7725 73.6974C76.7725 73.6171 76.8795 73.577 77.0936 73.577C77.3344 73.577 77.5016 73.6372 77.5953 73.7576C78.0501 75.6842 79.1606 76.6475 80.9266 76.6475C81.5956 76.6475 82.1642 76.4468 82.6324 76.0454C83.1007 75.644 83.3348 75.0754 83.3348 74.3396C83.3348 74.072 83.2947 73.8245 83.2144 73.5971C83.1341 73.3696 83.0472 73.1823 82.9535 73.0352C82.8732 72.888 82.7194 72.7341 82.4919 72.5736C82.2779 72.3997 82.1106 72.2726 81.9902 72.1923C81.8698 72.112 81.6491 71.9849 81.328 71.811C81.0069 71.6371 80.7861 71.5166 80.6657 71.4498C80.2777 71.2223 80.0035 71.0618 79.8429 70.9681C79.6958 70.8745 79.4416 70.7139 79.0803 70.4865C78.7325 70.2457 78.4783 70.0383 78.3177 69.8644C78.1572 69.677 77.9699 69.4563 77.7558 69.2021C77.5417 68.9345 77.3879 68.6536 77.2942 68.3592C77.214 68.0649 77.1738 67.7572 77.1738 67.4361Z" fill="#324072"/>
<path d="M129.92 64.0646C130.843 64.0914 131.599 64.1047 132.188 64.1047C132.776 64.1047 133.532 64.0914 134.455 64.0646C135.378 64.0378 136.094 64.0245 136.603 64.0245C136.937 64.0245 137.399 63.9509 137.987 63.8037L138.369 66.6735C138.275 66.7671 138.114 66.814 137.887 66.814C137.767 66.814 137.7 66.7805 137.686 66.7136C137.499 65.9644 137.265 65.4828 136.984 65.2687C136.716 65.0413 136.201 64.9275 135.439 64.9275C134.021 64.9275 133.285 65.0279 133.231 65.2286C133.111 65.6567 133.051 66.3256 133.051 67.2354V74.4801C133.051 75.2561 133.111 75.8782 133.231 76.3464C133.258 76.4401 133.445 76.5337 133.793 76.6274C134.141 76.7077 134.382 76.7478 134.516 76.7478C134.569 76.7478 134.596 76.8481 134.596 77.0488C134.596 77.1559 134.582 77.2495 134.556 77.3298C133.218 77.2629 132.442 77.2294 132.228 77.2294C132.161 77.2294 131.358 77.2629 129.82 77.3298C129.766 77.2763 129.739 77.1759 129.739 77.0288C129.739 76.8415 129.766 76.7478 129.82 76.7478C129.993 76.7478 130.248 76.7077 130.582 76.6274C130.93 76.5471 131.124 76.4535 131.164 76.3464C131.258 75.9852 131.305 75.3898 131.305 74.5604V67.2956C131.305 66.1316 131.244 65.4426 131.124 65.2286C131.017 65.0279 130.295 64.9275 128.957 64.9275C128.194 64.9275 127.672 65.0413 127.391 65.2687C127.124 65.4828 126.896 65.9644 126.709 66.7136C126.696 66.7805 126.629 66.814 126.508 66.814C126.281 66.814 126.12 66.7671 126.027 66.6735L126.408 63.8037C126.997 63.9509 127.458 64.0245 127.793 64.0245C128.301 64.0245 129.01 64.0378 129.92 64.0646Z" fill="#324072"/>
<path d="M181.703 64.0847C181.917 64.0847 182.693 64.0512 184.031 63.9843C184.057 64.0646 184.071 64.1583 184.071 64.2653C184.071 64.466 184.044 64.5663 183.99 64.5663C183.857 64.5663 183.616 64.6131 183.268 64.7068C182.92 64.8004 182.733 64.8941 182.706 64.9877C182.586 65.456 182.525 66.0781 182.525 66.8541V71.3293C182.525 72.8412 182.847 74.0453 183.489 74.9416C184.131 75.838 185.041 76.2862 186.218 76.2862C188.506 76.2862 189.65 74.7811 189.65 71.7708V66.7538C189.65 65.9376 189.603 65.349 189.509 64.9877C189.469 64.8807 189.235 64.7804 188.807 64.6867C188.392 64.5797 188.098 64.5262 187.924 64.5262C187.87 64.5262 187.844 64.4526 187.844 64.3054C187.844 64.1449 187.87 64.0378 187.924 63.9843C188.098 63.9977 188.446 64.0245 188.967 64.0646C189.489 64.0914 189.931 64.1047 190.292 64.1047C190.64 64.1047 191.075 64.0847 191.596 64.0445C192.132 64.0044 192.446 63.9843 192.54 63.9843C192.566 64.0646 192.58 64.1649 192.58 64.2854C192.58 64.4459 192.553 64.5262 192.499 64.5262C192.366 64.5262 192.071 64.5797 191.616 64.6867C191.175 64.7937 190.941 64.8941 190.914 64.9877C190.807 65.4025 190.754 66.0246 190.754 66.8541V71.7307C190.754 73.8044 190.319 75.2494 189.449 76.0655C188.579 76.8682 187.342 77.2696 185.736 77.2696C184.144 77.2696 182.92 76.8013 182.064 75.8648C181.208 74.9283 180.78 73.4165 180.78 71.3293V66.7738C180.78 65.9443 180.733 65.349 180.639 64.9877C180.599 64.8807 180.405 64.7871 180.057 64.7068C179.723 64.6131 179.468 64.5663 179.294 64.5663C179.241 64.5663 179.214 64.4793 179.214 64.3054C179.214 64.1449 179.241 64.0378 179.294 63.9843C180.833 64.0512 181.636 64.0847 181.703 64.0847Z" fill="#324072"/>
<path d="M235.793 64.1047C236.302 64.1047 236.944 64.098 237.72 64.0847C238.509 64.0713 239.031 64.0646 239.285 64.0646C241.466 64.0646 243.165 64.7068 244.383 65.9912C245.6 67.2755 246.209 68.7874 246.209 70.5266C246.209 72.4666 245.593 74.0854 244.363 75.3832C243.132 76.6809 241.433 77.3298 239.265 77.3298C239.105 77.3298 238.623 77.3164 237.82 77.2896C237.031 77.2629 236.369 77.2562 235.833 77.2696L233.405 77.3298C233.365 77.2896 233.345 77.1893 233.345 77.0288C233.345 76.8415 233.365 76.7478 233.405 76.7478C233.579 76.7478 233.833 76.701 234.168 76.6073C234.516 76.5137 234.723 76.4066 234.79 76.2862C234.884 76.1257 234.93 75.4969 234.93 74.3998V66.814C234.93 66.0246 234.884 65.4493 234.79 65.0881C234.75 64.9811 234.549 64.8807 234.188 64.7871C233.84 64.6934 233.579 64.6466 233.405 64.6466C233.352 64.6466 233.325 64.5663 233.325 64.4058C233.325 64.2318 233.352 64.1181 233.405 64.0646C234.101 64.0914 234.897 64.1047 235.793 64.1047ZM236.676 66.533V74.4801C236.676 75.042 236.777 75.5504 236.977 76.0053C237.031 76.1391 237.385 76.2394 238.041 76.3063C238.71 76.3732 239.225 76.4066 239.586 76.4066C242.663 76.4066 244.202 74.4199 244.202 70.4463C244.202 68.9211 243.794 67.6234 242.978 66.5531C242.175 65.4828 240.998 64.9476 239.446 64.9476H239.345C237.901 64.9476 237.098 65.0546 236.937 65.2687C236.763 65.5095 236.676 65.931 236.676 66.533Z" fill="#324072"/>
<path d="M289.121 66.7738C289.121 65.9443 289.075 65.349 288.981 64.9877C288.941 64.8807 288.747 64.7871 288.399 64.7068C288.064 64.6131 287.81 64.5663 287.636 64.5663C287.583 64.5663 287.556 64.4793 287.556 64.3054C287.556 64.1449 287.583 64.0378 287.636 63.9843C289.175 64.0512 289.978 64.0847 290.045 64.0847C290.259 64.0847 291.035 64.0512 292.372 63.9843C292.399 64.0646 292.413 64.1649 292.413 64.2854C292.413 64.4727 292.386 64.5663 292.332 64.5663C292.199 64.5663 291.958 64.6131 291.61 64.7068C291.262 64.8004 291.075 64.8941 291.048 64.9877C290.928 65.456 290.867 66.0781 290.867 66.8541V74.4801C290.867 75.2561 290.928 75.8782 291.048 76.3464C291.075 76.4401 291.262 76.5337 291.61 76.6274C291.958 76.7077 292.199 76.7478 292.332 76.7478C292.386 76.7478 292.413 76.8481 292.413 77.0488C292.413 77.1559 292.399 77.2495 292.372 77.3298C291.035 77.2629 290.259 77.2294 290.045 77.2294C289.978 77.2294 289.175 77.2629 287.636 77.3298C287.583 77.2763 287.556 77.1759 287.556 77.0288C287.556 76.8415 287.583 76.7478 287.636 76.7478C287.81 76.7478 288.064 76.7077 288.399 76.6274C288.747 76.5471 288.941 76.4535 288.981 76.3464C289.075 75.9852 289.121 75.3898 289.121 74.5604V66.7738Z" fill="#324072"/>
<path d="M339.82 64.7269C338.549 64.7269 337.546 65.2821 336.81 66.3925C336.074 67.503 335.706 68.7874 335.706 70.2457C335.706 71.316 335.88 72.3261 336.228 73.276C336.576 74.2259 337.118 75.0219 337.854 75.6641C338.59 76.2929 339.453 76.6073 340.443 76.6073C341.299 76.6073 342.048 76.3331 342.69 75.7845C343.332 75.2226 343.801 74.5336 344.095 73.7175C344.403 72.888 344.557 72.005 344.557 71.0685C344.557 69.9981 344.383 68.9947 344.035 68.0582C343.687 67.1083 343.145 66.3189 342.409 65.6901C341.673 65.0479 340.811 64.7269 339.82 64.7269ZM335.586 75.4835C334.342 74.159 333.72 72.5602 333.72 70.6872C333.72 68.8141 334.342 67.2153 335.586 65.8908C336.844 64.5529 338.355 63.884 340.121 63.884C341.888 63.884 343.399 64.5529 344.657 65.8908C345.915 67.2153 346.543 68.8141 346.543 70.6872C346.543 72.5602 345.915 74.159 344.657 75.4835C343.399 76.808 341.888 77.4703 340.121 77.4703C338.355 77.4703 336.844 76.808 335.586 75.4835Z" fill="#324072"/>
<line x1="74.6982" y1="48.9197" x2="348.698" y2="48.9197" stroke="#AC9C80"/>
</svg>
