<svg width="349" height="79" viewBox="0 0 349 79" fill="none" xmlns="http://www.w3.org/2000/svg">
<path fill-rule="evenodd" clip-rule="evenodd" d="M28.2657 26.1895C30.0105 24.4447 32.8394 24.4447 34.5842 26.1895L44.8095 36.4148C52.6612 44.2665 52.6612 56.9966 44.8095 64.8483L34.5842 75.0736C32.8394 76.8184 30.0105 76.8184 28.2656 75.0736V75.0736C26.5208 73.3288 26.5208 70.4998 28.2656 68.755L38.4909 58.5298C42.853 54.1677 42.853 47.0954 38.4909 42.7334L28.2657 32.5081C26.5208 30.7633 26.5208 27.9344 28.2657 26.1895V26.1895Z" fill="black"/>
<path fill-rule="evenodd" clip-rule="evenodd" d="M22.7343 26.1895C20.9895 24.4447 18.1606 24.4447 16.4158 26.1895L6.19054 36.4148C-1.66117 44.2665 -1.66117 56.9966 6.19054 64.8483L16.4158 75.0736C18.1606 76.8184 20.9895 76.8184 22.7344 75.0736V75.0736C24.4792 73.3288 24.4792 70.4998 22.7344 68.755L12.5091 58.5298C8.14704 54.1677 8.14704 47.0954 12.5091 42.7334L22.7343 32.5081C24.4792 30.7633 24.4792 27.9344 22.7343 26.1895V26.1895Z" fill="black"/>
<path fill-rule="evenodd" clip-rule="evenodd" d="M28.4526 4.39216C30.1974 6.13698 30.1974 8.9659 28.4526 10.7107L18.2274 20.936C13.8653 25.298 13.8653 32.3703 18.2274 36.7324L28.4526 46.9576C30.1974 48.7025 30.1974 51.5314 28.4526 53.2762V53.2762C26.7078 55.021 23.8789 55.021 22.134 53.2762L11.9088 43.051C4.05709 35.1992 4.0571 22.4691 11.9088 14.6174L22.134 4.39216C23.8789 2.64734 26.7078 2.64734 28.4526 4.39216V4.39216Z" fill="black"/>
<path fill-rule="evenodd" clip-rule="evenodd" d="M22.5476 4.39216C20.8028 6.13698 20.8028 8.9659 22.5476 10.7107L32.7729 20.936C37.1349 25.298 37.1349 32.3703 32.7729 36.7324L22.5476 46.9576C20.8028 48.7025 20.8028 51.5314 22.5476 53.2762V53.2762C24.2925 55.021 27.1214 55.021 28.8662 53.2762L39.0914 43.051C46.9432 35.1992 46.9431 22.4691 39.0914 14.6174L28.8662 4.39216C27.1214 2.64734 24.2925 2.64734 22.5476 4.39216V4.39216Z" fill="black"/>
<path d="M76.8399 10.8981C76.8399 8.22235 78.0172 5.93902 80.3719 4.04813C82.7623 2.15725 85.3846 1.2118 88.2387 1.2118C88.9879 1.2118 89.755 1.26532 90.5399 1.37235C91.3605 1.47938 92.0383 1.58641 92.5735 1.69345C93.1443 1.80048 93.9114 1.97886 94.8747 2.2286C95.8736 2.44266 96.6585 2.60321 97.2293 2.71024C97.6218 6.17092 97.818 9.13212 97.818 11.5938C97.6753 11.9506 97.4077 12.129 97.0153 12.129C95.9806 12.129 95.4277 12.0041 95.3563 11.7544C95.1066 9.97053 94.3395 8.27587 93.0551 6.6704C91.7708 5.02925 90.1831 4.20868 88.2922 4.20868C87.0792 4.20868 86.0446 4.58329 85.1883 5.33251C84.3678 6.08172 83.9575 7.27691 83.9575 8.91805C83.9575 9.63159 84.1359 10.3273 84.4926 11.0052C84.8494 11.683 85.4381 12.3787 86.2586 13.0923C87.1149 13.8058 87.8106 14.341 88.3458 14.6977C88.8809 15.0545 89.755 15.6253 90.968 16.4102C91.2891 16.6243 91.5389 16.7848 91.7172 16.8919C92.0027 17.0703 92.5913 17.427 93.4833 17.9622C94.3752 18.4973 94.9995 18.9076 95.3563 19.1931C95.7487 19.4428 96.2661 19.8709 96.9083 20.4774C97.5861 21.0839 98.0678 21.6904 98.3532 22.297C98.6743 22.8678 98.9597 23.6349 99.2094 24.5981C99.4592 25.5257 99.584 26.5604 99.584 27.702C99.584 30.5562 98.4067 32.9287 96.052 34.8196C93.6973 36.6748 90.9859 37.6024 87.9176 37.6024C85.0991 37.6024 81.7098 37.1386 77.7497 36.211C77.4642 35.0694 77.1788 33.5174 76.8934 31.5552C76.6437 29.5572 76.5188 28.148 76.5188 27.3274C76.6258 26.9707 76.9469 26.7923 77.4821 26.7923C78.5881 26.7923 79.1589 26.8993 79.1946 27.1134C79.48 28.7545 80.3719 30.4135 81.8704 32.0903C83.3688 33.7315 85.0278 34.552 86.8473 34.552C90.3793 34.552 92.1454 32.6076 92.1454 28.7188C92.1454 28.1123 91.9848 27.5237 91.6637 26.9528C91.3426 26.3463 90.861 25.7576 90.2188 25.1868C89.5766 24.616 89.0058 24.1522 88.5063 23.7954C88.0068 23.4386 87.2933 22.9748 86.3657 22.404C85.4737 21.8332 84.9029 21.4585 84.6532 21.2802C84.4748 21.1731 84.2072 20.9947 83.8504 20.745C82.6731 19.9601 81.7812 19.3358 81.1747 18.872C80.5681 18.4082 79.8546 17.766 79.034 16.9454C78.2491 16.1248 77.6783 15.2329 77.3215 14.2696C77.0004 13.2707 76.8399 12.1468 76.8399 10.8981Z" fill="black"/>
<path d="M140.804 1.74696C143.23 1.85399 145.192 1.90751 146.691 1.90751C148.189 1.90751 150.151 1.85399 152.577 1.74696C155.003 1.63993 156.966 1.58641 158.464 1.58641C159.356 1.58641 160.587 1.39019 162.157 0.997742L163.173 9.7743C162.924 10.024 162.406 10.1489 161.621 10.1489C161.3 10.1489 161.122 10.0597 161.086 9.88134C160.194 6.3493 158.286 4.58329 155.36 4.58329C152.47 4.58329 150.954 4.90438 150.811 5.54657C150.526 6.54553 150.383 8.13316 150.383 10.3095V29.6286C150.383 31.4125 150.526 32.8574 150.811 33.9634C150.883 34.2131 151.364 34.4985 152.256 34.8196C153.184 35.1407 153.808 35.3013 154.129 35.3013C154.272 35.3013 154.343 35.6402 154.343 36.3181C154.343 36.7462 154.308 37.0673 154.236 37.2813C153.987 37.2813 152.916 37.21 151.025 37.0673C149.135 36.9246 147.725 36.8532 146.798 36.8532C145.834 36.8532 144.425 36.9246 142.57 37.0673C140.715 37.1743 139.537 37.2457 139.038 37.2813C138.895 37.1386 138.824 36.8532 138.824 36.4251C138.824 35.6759 138.877 35.3013 138.984 35.3013C139.377 35.3013 140.037 35.1585 140.964 34.8731C141.892 34.552 142.409 34.2488 142.516 33.9634C142.766 33.0001 142.891 31.6265 142.891 29.8427V10.47C142.891 7.68719 142.748 6.04605 142.463 5.54657C142.356 5.33251 142.249 5.1898 142.142 5.11844C142.07 5.01141 141.696 4.90438 141.018 4.79735C140.34 4.65464 139.359 4.58329 138.075 4.58329C136.612 4.58329 135.417 4.99358 134.489 5.81415C133.561 6.59904 132.848 7.93693 132.348 9.82782C132.313 10.0062 132.134 10.0954 131.813 10.0954C131.028 10.0954 130.511 9.97053 130.261 9.72079L131.278 0.997742C132.848 1.39019 134.079 1.58641 134.971 1.58641C136.469 1.58641 138.414 1.63993 140.804 1.74696Z" fill="black"/>
<path d="M201.985 1.96102C202.806 1.96102 205.357 1.85399 209.638 1.63993C209.709 1.78264 209.727 2.15725 209.691 2.76376C209.691 3.33459 209.638 3.62001 209.531 3.62001C208.996 3.62001 208.389 3.72704 207.711 3.9411C207.069 4.11949 206.73 4.38706 206.694 4.74384C206.694 5.02925 206.837 5.4217 207.123 5.92118L212.474 15.3934C212.653 15.5718 212.831 15.5362 213.009 15.2864C214.044 13.788 215.275 11.8079 216.702 9.34618C218.129 6.88446 218.843 5.36818 218.843 4.79735C218.843 4.01245 217.701 3.62001 215.418 3.62001C215.275 3.62001 215.186 3.33459 215.15 2.76376C215.15 2.15725 215.221 1.78264 215.364 1.63993C218.575 1.85399 220.733 1.96102 221.839 1.96102C222.767 1.96102 224.783 1.85399 227.887 1.63993C227.994 1.96102 228.047 2.28212 228.047 2.60321C228.047 3.2454 227.976 3.56649 227.833 3.56649C227.191 3.56649 226.46 3.72704 225.639 4.04813C224.818 4.36923 224.158 4.85087 223.659 5.49305C222.731 6.74175 220.93 9.48889 218.254 13.7345C215.614 17.98 214.294 20.3347 214.294 20.7985V29.3075C214.294 31.3054 214.436 32.8574 214.722 33.9634C214.793 34.2131 215.275 34.4985 216.167 34.8196C217.094 35.1407 217.719 35.3013 218.04 35.3013C218.183 35.3013 218.254 35.6402 218.254 36.3181C218.254 36.7462 218.218 37.0673 218.147 37.2813C217.897 37.2813 216.827 37.21 214.936 37.0673C213.045 36.9246 211.636 36.8532 210.708 36.8532C209.745 36.8532 208.336 36.9246 206.48 37.0673C204.625 37.1743 203.448 37.2457 202.948 37.2813C202.806 37.1386 202.734 36.8532 202.734 36.4251C202.734 35.6759 202.788 35.3013 202.895 35.3013C203.287 35.3013 203.947 35.1585 204.875 34.8731C205.803 34.552 206.32 34.2488 206.427 33.9634C206.677 33.0001 206.802 31.5552 206.802 29.6286V20.5309C206.802 20.2812 206.231 19.1395 205.089 17.1059C203.983 15.0724 202.877 13.0923 201.771 11.1657L200.112 8.32938C198.935 6.15308 197.971 4.85087 197.222 4.42274C196.33 3.88758 195.385 3.62001 194.386 3.62001C194.243 3.62001 194.172 3.33459 194.172 2.76376C194.172 2.15725 194.243 1.78264 194.386 1.63993C194.992 1.67561 195.795 1.72912 196.794 1.80048C197.793 1.83615 198.703 1.87183 199.523 1.90751C200.38 1.94318 201.2 1.96102 201.985 1.96102Z" fill="black"/>
<path d="M265.628 1.96102C266.342 1.96102 268.839 1.85399 273.12 1.63993C273.227 1.96102 273.281 2.28212 273.281 2.60321C273.281 3.28108 273.209 3.62001 273.067 3.62001C272.746 3.62001 272.103 3.78055 271.14 4.10165C270.177 4.38706 269.66 4.65464 269.588 4.90438C269.338 5.86766 269.214 7.29475 269.214 9.18563V29.4681C269.214 31.2162 269.356 32.5006 269.642 33.3212C269.82 33.892 271.033 34.1774 273.281 34.1774H274.672C276.884 34.1774 278.882 33.7136 280.666 32.786C281.272 32.4649 281.95 31.8584 282.7 30.9665C283.484 30.0746 284.091 29.0756 284.519 27.9696C284.59 27.7556 284.84 27.6485 285.268 27.6485C286.125 27.6485 286.66 27.7556 286.874 27.9696C285.126 32.8931 284.162 35.9613 283.984 37.1743C281.95 37.1743 278.775 37.1386 274.458 37.0673C270.141 36.9959 267.216 36.9602 265.682 36.9602L257.868 37.2813C257.726 37.1386 257.654 36.8354 257.654 36.3716C257.654 35.658 257.726 35.3013 257.868 35.3013C258.296 35.3013 258.956 35.1764 259.848 34.9266C260.776 34.6769 261.293 34.4093 261.4 34.1239C261.614 33.3033 261.721 31.7335 261.721 29.4145V8.97157C261.721 6.79527 261.579 5.45738 261.293 4.9579C261.115 4.67248 260.615 4.38706 259.795 4.10165C258.974 3.78055 258.368 3.62001 257.975 3.62001C257.833 3.62001 257.761 3.31675 257.761 2.71024C257.761 2.06805 257.797 1.71128 257.868 1.63993C262.792 1.85399 265.378 1.96102 265.628 1.96102Z" fill="black"/>
<path d="M325.632 1.80048C327.202 1.80048 329.967 1.7648 333.927 1.69345C337.887 1.58641 340.884 1.5329 342.917 1.5329C342.953 1.88967 343.47 4.52977 344.469 9.45321C344.291 9.63159 343.881 9.72079 343.239 9.72079C342.846 9.72079 342.596 9.59592 342.489 9.34618C341.811 7.99045 340.741 6.83094 339.278 5.86766C337.816 4.90438 336.389 4.42274 334.997 4.42274H332.964C330.716 4.42274 329.556 4.65464 329.485 5.11844C329.307 5.97469 329.217 7.3661 329.217 9.29266V17.5341C329.217 17.7481 329.984 17.8552 331.519 17.8552H334.355C336.567 17.8552 337.78 17.7838 337.994 17.6411C338.172 17.4984 338.315 16.9811 338.422 16.0891C338.493 15.554 338.601 15.0367 338.743 14.5372C338.779 14.2875 339.046 14.1626 339.546 14.1626C340.152 14.1626 340.545 14.2518 340.723 14.4302V24.5446C340.581 24.6873 340.206 24.7587 339.599 24.7587C339.136 24.7587 338.85 24.616 338.743 24.3306C338.601 23.8311 338.476 23.4029 338.369 23.0462C338.262 22.6894 338.172 22.4218 338.101 22.2434C338.03 22.0651 337.94 21.9045 337.833 21.7618C337.762 21.6191 337.709 21.5299 337.673 21.4942C337.637 21.4585 337.566 21.4229 337.459 21.3872C337.352 21.3158 337.28 21.2623 337.245 21.2266C336.781 20.9412 335.39 20.7985 333.071 20.7985C330.502 20.7985 329.217 20.9591 329.217 21.2802V29.5216C329.217 31.2341 329.36 32.5006 329.646 33.3212C329.824 33.892 331.037 34.1774 333.285 34.1774H334.676C336.888 34.1774 338.886 33.7136 340.67 32.786C341.276 32.4649 341.954 31.8584 342.703 30.9665C343.488 30.0746 344.095 29.0756 344.523 27.9696C344.559 27.7556 344.808 27.6485 345.272 27.6485C346.128 27.6485 346.664 27.7556 346.878 27.9696C345.129 32.8931 344.166 35.9613 343.988 37.1743C342.168 37.1743 339.278 37.1386 335.318 37.0673C331.358 36.9959 328.147 36.9602 325.685 36.9602L317.872 37.2813C317.729 37.1386 317.658 36.8354 317.658 36.3716C317.658 35.658 317.729 35.3013 317.872 35.3013C318.3 35.3013 318.96 35.1764 319.852 34.9266C320.78 34.6769 321.297 34.4093 321.404 34.1239C321.618 33.3033 321.725 31.7335 321.725 29.4145V9.18563C321.725 7.22339 321.618 5.83199 321.404 5.01141C321.297 4.726 320.762 4.4049 319.799 4.04813C318.871 3.69136 318.211 3.51298 317.819 3.51298C317.676 3.51298 317.605 3.19188 317.605 2.54969C317.605 1.97886 317.658 1.63993 317.765 1.5329C320.619 1.71128 323.242 1.80048 325.632 1.80048Z" fill="black"/>
<path d="M77.1738 68.4338C77.1738 67.4036 77.5685 66.5608 78.3579 65.9052C79.1472 65.2363 80.0637 64.9018 81.1072 64.9018C81.4016 64.9018 81.6758 64.9219 81.93 64.962C82.1976 64.9888 82.4117 65.0222 82.5722 65.0623C82.7461 65.1025 82.987 65.1694 83.2947 65.263C83.6158 65.3433 83.8967 65.4102 84.1375 65.4637C84.2981 66.1728 84.3784 67.1294 84.3784 68.3335C84.3784 68.4271 84.3115 68.474 84.1777 68.474C83.8566 68.474 83.6827 68.4071 83.6559 68.2733C83.589 67.6846 83.3014 67.116 82.793 66.5675C82.2979 66.0056 81.6892 65.7246 80.9667 65.7246C80.164 65.7246 79.5954 65.9253 79.2609 66.3266C78.9398 66.728 78.7793 67.223 78.7793 67.8117C78.7793 68.0659 78.8261 68.3134 78.9198 68.5542C79.0134 68.7817 79.1071 68.9757 79.2007 69.1362C79.2944 69.2834 79.4616 69.4573 79.7024 69.658C79.9566 69.8587 80.1373 69.9992 80.2443 70.0794C80.3647 70.1597 80.5921 70.3069 80.9266 70.5209C81.2745 70.735 81.4952 70.8688 81.5889 70.9223C81.6558 70.9624 81.8899 71.1096 82.2913 71.3638C82.6926 71.6046 82.9669 71.7786 83.1141 71.8856C83.2612 71.9792 83.4887 72.1599 83.7964 72.4274C84.1175 72.6816 84.3449 72.9091 84.4787 73.1098C84.6259 73.3104 84.7597 73.5646 84.8801 73.8724C85.0139 74.1667 85.0808 74.4744 85.0808 74.7955C85.0808 75.8658 84.6593 76.7488 83.8165 77.4445C82.987 78.1268 82.0103 78.468 80.8865 78.468C80.5654 78.468 80.2242 78.4412 79.863 78.3877C79.5018 78.3476 79.2007 78.3075 78.9599 78.2673C78.7191 78.2138 78.4114 78.1469 78.0368 78.0666C77.6755 77.973 77.4213 77.9128 77.2742 77.886C76.9397 76.2404 76.7725 75.1768 76.7725 74.6952C76.7725 74.6149 76.8795 74.5747 77.0936 74.5747C77.3344 74.5747 77.5016 74.6349 77.5953 74.7554C78.0501 76.6819 79.1606 77.6452 80.9266 77.6452C81.5956 77.6452 82.1642 77.4445 82.6324 77.0431C83.1007 76.6418 83.3348 76.0732 83.3348 75.3373C83.3348 75.0698 83.2947 74.8223 83.2144 74.5948C83.1341 74.3674 83.0472 74.1801 82.9535 74.0329C82.8732 73.8857 82.7194 73.7319 82.4919 73.5713C82.2779 73.3974 82.1106 73.2703 81.9902 73.19C81.8698 73.1098 81.6491 72.9827 81.328 72.8087C81.0069 72.6348 80.7861 72.5144 80.6657 72.4475C80.2777 72.2201 80.0035 72.0595 79.8429 71.9659C79.6958 71.8722 79.4416 71.7117 79.0803 71.4842C78.7325 71.2434 78.4783 71.036 78.3177 70.8621C78.1572 70.6748 77.9699 70.454 77.7558 70.1998C77.5417 69.9323 77.3879 69.6513 77.2942 69.357C77.214 69.0626 77.1738 68.7549 77.1738 68.4338Z" fill="black"/>
<path d="M129.92 65.0623C130.843 65.0891 131.599 65.1025 132.188 65.1025C132.776 65.1025 133.532 65.0891 134.455 65.0623C135.378 65.0356 136.094 65.0222 136.603 65.0222C136.937 65.0222 137.399 64.9486 137.987 64.8015L138.369 67.6712C138.275 67.7649 138.114 67.8117 137.887 67.8117C137.767 67.8117 137.7 67.7783 137.686 67.7114C137.499 66.9621 137.265 66.4805 136.984 66.2664C136.716 66.039 136.201 65.9253 135.439 65.9253C134.021 65.9253 133.285 66.0256 133.231 66.2263C133.111 66.6544 133.051 67.3234 133.051 68.2331V75.4778C133.051 76.2538 133.111 76.8759 133.231 77.3442C133.258 77.4378 133.445 77.5315 133.793 77.6251C134.141 77.7054 134.382 77.7455 134.516 77.7455C134.569 77.7455 134.596 77.8459 134.596 78.0466C134.596 78.1536 134.582 78.2473 134.556 78.3275C133.218 78.2606 132.442 78.2272 132.228 78.2272C132.161 78.2272 131.358 78.2606 129.82 78.3275C129.766 78.274 129.739 78.1737 129.739 78.0265C129.739 77.8392 129.766 77.7455 129.82 77.7455C129.993 77.7455 130.248 77.7054 130.582 77.6251C130.93 77.5449 131.124 77.4512 131.164 77.3442C131.258 76.9829 131.305 76.3876 131.305 75.5581V68.2933C131.305 67.1294 131.244 66.4404 131.124 66.2263C131.017 66.0256 130.295 65.9253 128.957 65.9253C128.194 65.9253 127.672 66.039 127.391 66.2664C127.124 66.4805 126.896 66.9621 126.709 67.7114C126.696 67.7783 126.629 67.8117 126.508 67.8117C126.281 67.8117 126.12 67.7649 126.027 67.6712L126.408 64.8015C126.997 64.9486 127.458 65.0222 127.793 65.0222C128.301 65.0222 129.01 65.0356 129.92 65.0623Z" fill="black"/>
<path d="M181.703 65.0824C181.917 65.0824 182.693 65.049 184.031 64.9821C184.057 65.0623 184.071 65.156 184.071 65.263C184.071 65.4637 184.044 65.5641 183.99 65.5641C183.857 65.5641 183.616 65.6109 183.268 65.7045C182.92 65.7982 182.733 65.8918 182.706 65.9855C182.586 66.4537 182.525 67.0759 182.525 67.8518V72.3271C182.525 73.8389 182.847 75.043 183.489 75.9394C184.131 76.8358 185.041 77.284 186.218 77.284C188.506 77.284 189.65 75.7788 189.65 72.7686V67.7515C189.65 66.9354 189.603 66.3467 189.509 65.9855C189.469 65.8785 189.235 65.7781 188.807 65.6845C188.392 65.5774 188.098 65.5239 187.924 65.5239C187.87 65.5239 187.844 65.4503 187.844 65.3032C187.844 65.1426 187.87 65.0356 187.924 64.9821C188.098 64.9954 188.446 65.0222 188.967 65.0623C189.489 65.0891 189.931 65.1025 190.292 65.1025C190.64 65.1025 191.075 65.0824 191.596 65.0423C192.132 65.0021 192.446 64.9821 192.54 64.9821C192.566 65.0623 192.58 65.1627 192.58 65.2831C192.58 65.4436 192.553 65.5239 192.499 65.5239C192.366 65.5239 192.071 65.5774 191.616 65.6845C191.175 65.7915 190.941 65.8918 190.914 65.9855C190.807 66.4002 190.754 67.0224 190.754 67.8518V72.7285C190.754 74.8022 190.319 76.2471 189.449 77.0632C188.579 77.866 187.342 78.2673 185.736 78.2673C184.144 78.2673 182.92 77.7991 182.064 76.8625C181.208 75.926 180.78 74.4142 180.78 72.3271V67.7716C180.78 66.9421 180.733 66.3467 180.639 65.9855C180.599 65.8785 180.405 65.7848 180.057 65.7045C179.723 65.6109 179.468 65.5641 179.294 65.5641C179.241 65.5641 179.214 65.4771 179.214 65.3032C179.214 65.1426 179.241 65.0356 179.294 64.9821C180.833 65.049 181.636 65.0824 181.703 65.0824Z" fill="black"/>
<path d="M235.793 65.1025C236.302 65.1025 236.944 65.0958 237.72 65.0824C238.509 65.069 239.031 65.0623 239.285 65.0623C241.466 65.0623 243.165 65.7045 244.383 66.9889C245.6 68.2733 246.209 69.7851 246.209 71.5244C246.209 73.4643 245.593 75.0831 244.363 76.3809C243.132 77.6786 241.433 78.3275 239.265 78.3275C239.105 78.3275 238.623 78.3141 237.82 78.2874C237.031 78.2606 236.369 78.2539 235.833 78.2673L233.405 78.3275C233.365 78.2874 233.345 78.187 233.345 78.0265C233.345 77.8392 233.365 77.7455 233.405 77.7455C233.579 77.7455 233.833 77.6987 234.168 77.6051C234.516 77.5114 234.723 77.4044 234.79 77.284C234.884 77.1234 234.93 76.4946 234.93 75.3975V67.8117C234.93 67.0224 234.884 66.4471 234.79 66.0858C234.75 65.9788 234.549 65.8785 234.188 65.7848C233.84 65.6911 233.579 65.6443 233.405 65.6443C233.352 65.6443 233.325 65.564 233.325 65.4035C233.325 65.2296 233.352 65.1159 233.405 65.0623C234.101 65.0891 234.897 65.1025 235.793 65.1025ZM236.676 67.5307V75.4778C236.676 76.0397 236.777 76.5481 236.977 77.003C237.031 77.1368 237.385 77.2371 238.041 77.304C238.71 77.3709 239.225 77.4044 239.586 77.4044C242.663 77.4044 244.202 75.4176 244.202 71.4441C244.202 69.9189 243.794 68.6211 242.978 67.5508C242.175 66.4805 240.998 65.9453 239.446 65.9453H239.345C237.901 65.9453 237.098 66.0524 236.937 66.2664C236.763 66.5073 236.676 66.9287 236.676 67.5307Z" fill="black"/>
<path d="M289.121 67.7716C289.121 66.9421 289.075 66.3467 288.981 65.9855C288.941 65.8785 288.747 65.7848 288.399 65.7045C288.064 65.6109 287.81 65.5641 287.636 65.5641C287.583 65.5641 287.556 65.4771 287.556 65.3032C287.556 65.1426 287.583 65.0356 287.636 64.9821C289.175 65.049 289.978 65.0824 290.045 65.0824C290.259 65.0824 291.035 65.049 292.372 64.9821C292.399 65.0623 292.413 65.1627 292.413 65.2831C292.413 65.4704 292.386 65.5641 292.332 65.5641C292.199 65.5641 291.958 65.6109 291.61 65.7045C291.262 65.7982 291.075 65.8918 291.048 65.9855C290.928 66.4537 290.867 67.0759 290.867 67.8518V75.4778C290.867 76.2538 290.928 76.8759 291.048 77.3442C291.075 77.4378 291.262 77.5315 291.61 77.6251C291.958 77.7054 292.199 77.7455 292.332 77.7455C292.386 77.7455 292.413 77.8459 292.413 78.0466C292.413 78.1536 292.399 78.2473 292.372 78.3275C291.035 78.2606 290.259 78.2272 290.045 78.2272C289.978 78.2272 289.175 78.2606 287.636 78.3275C287.583 78.274 287.556 78.1737 287.556 78.0265C287.556 77.8392 287.583 77.7455 287.636 77.7455C287.81 77.7455 288.064 77.7054 288.399 77.6251C288.747 77.5449 288.941 77.4512 288.981 77.3442C289.075 76.9829 289.121 76.3876 289.121 75.5581V67.7716Z" fill="black"/>
<path d="M339.82 65.7246C338.549 65.7246 337.546 66.2798 336.81 67.3903C336.074 68.5007 335.706 69.7851 335.706 71.2434C335.706 72.3137 335.88 73.3238 336.228 74.2737C336.576 75.2236 337.118 76.0197 337.854 76.6619C338.59 77.2907 339.453 77.6051 340.443 77.6051C341.299 77.6051 342.048 77.3308 342.69 76.7823C343.332 76.2203 343.801 75.5313 344.095 74.7152C344.403 73.8857 344.557 73.0027 344.557 72.0662C344.557 70.9959 344.383 69.9925 344.035 69.0559C343.687 68.106 343.145 67.3167 342.409 66.6879C341.673 66.0457 340.811 65.7246 339.82 65.7246ZM335.586 76.4812C334.342 75.1567 333.72 73.5579 333.72 71.6849C333.72 69.8119 334.342 68.2131 335.586 66.8886C336.844 65.5507 338.355 64.8817 340.121 64.8817C341.888 64.8817 343.399 65.5507 344.657 66.8886C345.915 68.2131 346.543 69.8119 346.543 71.6849C346.543 73.5579 345.915 75.1567 344.657 76.4812C343.399 77.8057 341.888 78.468 340.121 78.468C338.355 78.468 336.844 77.8057 335.586 76.4812Z" fill="black"/>
<line x1="74.6982" y1="49.9174" x2="348.698" y2="49.9174" stroke="black"/>
</svg>
