<svg xmlns="http://www.w3.org/2000/svg" width="23" height="23" viewBox="0 0 23 23"><defs><style>.a{fill:#6fbe44;}.b{fill:#fff;}</style></defs><g transform="translate(0 0)"><circle class="a" cx="11.5" cy="11.5" r="11.5" transform="translate(0 0)"/><path class="b" d="M5.667.562a5.1,5.1,0,1,0,5.1,5.1A5.1,5.1,0,0,0,5.667.562ZM6.842,7.768,5.026,6.449a.249.249,0,0,1-.1-.2V2.785a.248.248,0,0,1,.247-.247H6.16a.248.248,0,0,1,.247.247V5.619l1.307.951a.247.247,0,0,1,.054.346l-.58.8A.249.249,0,0,1,6.842,7.768Z" transform="translate(5.834 5.833)"/></g></svg>