<svg xmlns="http://www.w3.org/2000/svg" width="23" height="23" viewBox="0 0 23 23"><defs><style>.a{fill:#6fbe44;}.b{fill:#fff;}</style></defs><g transform="translate(0 0)"><circle class="a" cx="11.5" cy="11.5" r="11.5" transform="translate(0 0)"/><path class="b" d="M13.476,11.1a6,6,0,0,1-1.885-.3.539.539,0,0,0-.539.127L9.891,12.087a7.944,7.944,0,0,1-3.48-3.48L7.573,7.441a.507.507,0,0,0,.132-.528,6,6,0,0,1-.3-1.885A.53.53,0,0,0,6.876,4.5H5.028a.53.53,0,0,0-.528.528A8.975,8.975,0,0,0,13.476,14,.53.53,0,0,0,14,13.476V11.628A.53.53,0,0,0,13.476,11.1Zm-.528-1.848H14A4.752,4.752,0,0,0,9.252,4.5V5.556A3.693,3.693,0,0,1,12.948,9.252Zm-2.112,0h1.056a2.641,2.641,0,0,0-2.64-2.64V7.668A1.582,1.582,0,0,1,10.836,9.252Z" transform="translate(2.309 2.309)"/></g></svg>