<svg xmlns="http://www.w3.org/2000/svg" width="31.257" height="31.262" viewBox="0 0 31.257 31.262"><defs><style>.a{fill:#6fbe44;}</style></defs><g transform="translate(36.544 0)"><path class="a" d="M30.832,27.028l-6.087-6.087a1.464,1.464,0,0,0-1.038-.427h-1a12.693,12.693,0,1,0-2.2,2.2v1a1.464,1.464,0,0,0,.427,1.038l6.087,6.087a1.459,1.459,0,0,0,2.07,0L30.826,29.1A1.472,1.472,0,0,0,30.832,27.028ZM12.7,20.514A7.815,7.815,0,1,1,20.514,12.7,7.81,7.81,0,0,1,12.7,20.514Z" transform="translate(-36.544)"/></g></svg>