<svg xmlns="http://www.w3.org/2000/svg" width="40.359" height="28.25" viewBox="0 0 40.359 28.25"><defs><style>.a{fill:#fff;}</style></defs><path class="a" d="M26.843,16.375A3.057,3.057,0,0,1,24.233,14.9L20.178,8.177,16.13,14.9a3.067,3.067,0,0,1-2.617,1.482,2.9,2.9,0,0,1-.839-.12L4.035,13.789V25.013a2.011,2.011,0,0,0,1.526,1.955L19.194,30.38a4.1,4.1,0,0,0,1.955,0l13.646-3.411a2.022,2.022,0,0,0,1.526-1.955V13.789l-8.639,2.466A2.9,2.9,0,0,1,26.843,16.375ZM40.249,9.3,37,2.817a1.03,1.03,0,0,0-1.053-.561L20.178,4.268l5.782,9.591a1.036,1.036,0,0,0,1.167.46l12.479-3.563A1.039,1.039,0,0,0,40.249,9.3ZM3.354,2.817.107,9.3a1.028,1.028,0,0,0,.637,1.45l12.479,3.563a1.036,1.036,0,0,0,1.167-.46l5.789-9.585L4.4,2.256A1.03,1.03,0,0,0,3.354,2.817Z" transform="translate(0.003 -2.247)"/></svg>