<svg xmlns="http://www.w3.org/2000/svg" width="44" height="44" viewBox="0 0 44 44"><defs><style>.a{fill:#6fbe44;}.b{fill:#fff;}</style></defs><g transform="translate(0 0)"><circle class="a" cx="22" cy="22" r="22" transform="translate(0 0)"/><path class="b" d="M21.581,17.06a11.414,11.414,0,0,1-3.587-.573,1.025,1.025,0,0,0-1.025.241l-2.21,2.21a15.117,15.117,0,0,1-6.621-6.621l2.21-2.221a.965.965,0,0,0,.251-1A11.414,11.414,0,0,1,10.026,5.5a1.008,1.008,0,0,0-1-1H5.5a1.008,1.008,0,0,0-1,1A17.079,17.079,0,0,0,21.581,22.586a1.008,1.008,0,0,0,1-1V18.064A1.008,1.008,0,0,0,21.581,17.06Zm-1-3.517h2.01A9.044,9.044,0,0,0,13.543,4.5V6.51A7.028,7.028,0,0,1,20.576,13.543Zm-4.019,0h2.01a5.026,5.026,0,0,0-5.024-5.024v2.01A3.01,3.01,0,0,1,16.557,13.543Z" transform="translate(8.457 8.457)"/></g></svg>