<svg xmlns="http://www.w3.org/2000/svg" width="31.326" height="33.066" viewBox="0 0 31.326 33.066"><defs><style>.a{fill:#fff;}</style></defs><path class="a" d="M27.31,20.8V10.362L22.09,5.141l-5.221,5.221v3.481H6.427V38.207H37.752V20.8H27.31ZM13.388,34.727H9.907V31.246h3.481Zm0-6.961H9.907V24.285h3.481Zm0-6.961H9.907V17.324h3.481ZM23.83,34.727H20.349V31.246H23.83Zm0-6.961H20.349V24.285H23.83Zm0-6.961H20.349V17.324H23.83Zm0-6.961H20.349V10.362H23.83ZM34.272,34.727H30.791V31.246h3.481v3.481Zm0-6.961H30.791V24.285h3.481Z" transform="translate(-6.427 -5.141)"/></svg>