<svg xmlns="http://www.w3.org/2000/svg" width="42" height="29.4" viewBox="0 0 42 29.4"><defs><style>.a{fill:#fff;}</style></defs><path class="a" d="M40.773,15.723l-3.839-3.839a4.2,4.2,0,0,0-2.973-1.227H31.5V4.35a2.1,2.1,0,0,0-2.1-2.1H2.1A2.1,2.1,0,0,0,0,4.35V26.4a5.237,5.237,0,0,0,9.45,3.124A5.237,5.237,0,0,0,18.9,26.4a5.531,5.531,0,0,0-.1-1.05h10.71a5.044,5.044,0,0,0-.1,1.05,5.25,5.25,0,1,0,10.5,0,5.531,5.531,0,0,0-.1-1.05H40.95A1.053,1.053,0,0,0,42,24.3V18.689A4.186,4.186,0,0,0,40.773,15.723ZM5.25,28.5a2.1,2.1,0,1,1,2.1-2.1A2.106,2.106,0,0,1,5.25,28.5Zm8.4,0a2.1,2.1,0,1,1,2.1-2.1A2.106,2.106,0,0,1,13.65,28.5ZM31.5,13.8h2.461a1.042,1.042,0,0,1,.742.308l2.842,2.842H31.5Zm3.15,14.7a2.1,2.1,0,1,1,2.1-2.1A2.106,2.106,0,0,1,34.65,28.5Z" transform="translate(0 -2.25)"/></svg>