<svg xmlns="http://www.w3.org/2000/svg" width="40.002" height="27.998" viewBox="0 0 40.002 27.998"><defs><style>.a{fill:#fff;}</style></defs><path class="a" d="M38.163,21.585a7.333,7.333,0,0,0,0-2.663l1.613-.931a.453.453,0,0,0,.206-.531,9.381,9.381,0,0,0-2.075-3.588.456.456,0,0,0-.563-.088l-1.613.931a7.339,7.339,0,0,0-2.307-1.331V11.521a.455.455,0,0,0-.356-.444,9.431,9.431,0,0,0-4.138,0,.455.455,0,0,0-.356.444v1.863a7.339,7.339,0,0,0-2.307,1.331l-1.613-.931a.457.457,0,0,0-.563.088,9.381,9.381,0,0,0-2.075,3.588.46.46,0,0,0,.206.531l1.613.931a7.333,7.333,0,0,0,0,2.663l-1.613.931a.453.453,0,0,0-.206.531,9.428,9.428,0,0,0,2.075,3.588.456.456,0,0,0,.563.088l1.613-.931a7.339,7.339,0,0,0,2.307,1.331v1.863a.455.455,0,0,0,.356.444,9.431,9.431,0,0,0,4.138,0,.455.455,0,0,0,.356-.444V27.124a7.339,7.339,0,0,0,2.307-1.331l1.613.931a.457.457,0,0,0,.563-.088,9.381,9.381,0,0,0,2.075-3.588.46.46,0,0,0-.206-.531l-1.613-.931Zm-7.157,1.7a3.032,3.032,0,1,1,3.032-3.032A3.035,3.035,0,0,1,31.005,23.285ZM6,14.253a4,4,0,1,0-4-4A4,4,0,0,0,6,14.253Zm14,2c.119,0,.231-.031.35-.038a11.524,11.524,0,0,1,2.269-3.7,2.464,2.464,0,0,1,1.807-.788,2.4,2.4,0,0,1,1.225.331l.494.288c.05-.031.1-.056.15-.088a6.919,6.919,0,0,0,.7-3A7,7,0,1,0,20,16.253Zm6.576,12.158c-.144-.075-.288-.163-.425-.244a3.088,3.088,0,0,1-1.719.613,2.485,2.485,0,0,1-1.807-.788,11.4,11.4,0,0,1-2.513-4.351c-.669-2.157,1.557-3.107,1.613-3.144q-.009-.244,0-.488l-.494-.288a2.546,2.546,0,0,1-.613-.506c-.206.013-.406.038-.613.038a9.868,9.868,0,0,1-4.282-1h-.519A7.2,7.2,0,0,0,8,25.455v1.8a3,3,0,0,0,3,3H26.967a2.407,2.407,0,0,1-.388-1.269v-.575Zm-15.759-11A3.989,3.989,0,0,0,8,16.253H4a4,4,0,0,0-4,4v2a2,2,0,0,0,2,2H6.12a9.167,9.167,0,0,1,4.7-6.839Z" transform="translate(0 -2.257)"/></svg>